<?xml version="1.0" encoding="utf-8"?>
<svg version="1.1" baseProfile="full" x="0px" y="0px" width="1029px" height="425px" viewBox="0 0 1029 425" xmlns="http://www.w3.org/2000/svg">
  <title/>
  <desc>Creator: FreeHEP Graphics2D Driver Producer: org.freehep.graphicsio.svg.SVGGraphics2D Revision Source:  Date: Tuesday, August 15, 2017 3:19:41 PM CEST</desc>
  <g stroke-linejoin="miter" stroke-dashoffset="0" stroke-dasharray="none" stroke-width="1" stroke-miterlimit="10" stroke-linecap="square">
    <g fill-opacity="1" fill-rule="nonzero" stroke="none" fill="#ffffff">
      <path d="M 234.711 0 L 668.384 0 L 668.384 425 L 234.711 425 L 234.711 0 Z"/>
    </g>
    <ellipse transform="matrix(-0.641859, 0.766823, -0.766823, -0.641859, 721.862244, 163.205398)" cx="224.253" cy="108.6" rx="139.668" ry="139.668" style="fill: rgb(238, 238, 238);"/>
    <ellipse transform="matrix(-0.641859, 0.766823, -0.766823, -0.641859, 574.295259, 41.265349)" cx="198.338" cy="76.965" rx="123.528" ry="98.983" style="fill: rgba(208, 208, 208, 0.47);"/>
    <g transform="matrix(0.6896807945868502, 0, 0, 0.6896807945868502, 483.5019032741057, -75.43634622930949)">
      <g stroke-linejoin="round" stroke-width="2" stroke-linecap="round" fill="none" stroke-opacity="0.3921568691730499" stroke="#999999">
        <path d="M 120.14286041259766 549.9356689453125 C 88.81800079345703 536.70361328125 44.78411102294922 515.0013427734375 21.790420532226562 501.4623107910156"/>
      </g>
    </g>
    <g transform="matrix(1.2706486302647293, 0.5367405817470522, -0.5367405817470522, 1.2706486302647293, 566.362126707403, 303.8437229005446)">
      <g fill-opacity="0.3921568691730499" fill-rule="nonzero" stroke="none" fill="#999999">
        <path d="M -0.00000000000000009185 0.5 C 0.27614237491539656 0.5 0.49999999999999994 0.2761423749153968 0.5 0.00000000000000012246 C 0.5000000000000001 -0.27614237491539656 0.27614237491539684 -0.4999999999999999 0.00000000000000015308 -0.5 z"/>
      </g>
    </g>
    <g transform="matrix(-4.754471960964499, -2.7995018612973146, 2.7995018612973146, -4.754471960964499, 489.02139451604523, 264.81357374902217)">
      <g fill-opacity="0.3921568691730499" fill-rule="nonzero" stroke="none" fill="#999999">
        <path d="M -2 -0.5 Q -1 0 0 0 Q -1 0 -2 0.5 z"/>
      </g>
    </g>
    <g transform="matrix(0.6896807945868502, 0, 0, 0.6896807945868502, 483.5019032741057, -75.43634622930949)">
      <g stroke-linejoin="round" stroke-width="2" stroke-linecap="round" fill="none" stroke-opacity="0.3921568691730499" stroke="#999999">
        <path d="M 50.39956283569336 604.8285522460938 C 38.162071228027344 572.321533203125 20.08738899230957 531.158935546875 10.02863597869873 512.8893432617188"/>
      </g>
    </g>
    <g transform="matrix(0.48597496416138997, 1.2909170104604446, -1.2909170104604446, 0.48597496416138997, 518.2615138174566, 341.7022902725907)">
      <g fill-opacity="0.3921568691730499" fill-rule="nonzero" stroke="none" fill="#999999">
        <path d="M -0.00000000000000009185 0.5 C 0.27614237491539656 0.5 0.49999999999999994 0.2761423749153968 0.5 0.00000000000000012246 C 0.5000000000000001 -0.27614237491539656 0.27614237491539684 -0.4999999999999999 0.00000000000000015308 -0.5 z"/>
      </g>
    </g>
    <g transform="matrix(-2.6610844215977436, -4.833305701084356, 4.833305701084356, -2.6610844215977436, 485.0962918804611, 268.62696046911617)">
      <g fill-opacity="0.3921568691730499" fill-rule="nonzero" stroke="none" fill="#999999">
        <path d="M -2 -0.5 Q -1 0 0 0 Q -1 0 -2 0.5 z"/>
      </g>
    </g>
    <g transform="matrix(0.6896807945868502, 0, 0, 0.6896807945868502, 483.5019032741057, -75.43634622930949)">
      <g stroke-linejoin="round" stroke-width="2" stroke-linecap="round" fill="none" stroke-opacity="0.3921568691730499" stroke="#999999">
        <path d="M 128.50245666503906 506.4321594238281 C 93.6297607421875 500.7845764160156 47.620845794677734 493.56292724609375 25.738672256469727 490.30218505859375"/>
      </g>
    </g>
    <g transform="matrix(1.361621281798346, 0.22051276299032074, -0.22051276299032074, 1.361621281798346, 572.1275796932122, 273.8401878864507)">
      <g fill-opacity="0.3921568691730499" fill-rule="nonzero" stroke="none" fill="#999999">
        <path d="M -0.00000000000000009185 0.5 C 0.27614237491539656 0.5 0.49999999999999994 0.2761423749153968 0.5 0.00000000000000012246 C 0.5000000000000001 -0.27614237491539656 0.27614237491539684 -0.4999999999999999 0.00000000000000015308 -0.5 z"/>
      </g>
    </g>
    <g transform="matrix(-5.4571900733297944, -0.8131978864676743, 0.8131978864676743, -5.4571900733297944, 490.3389905733192, 261.0892595729556)">
      <g fill-opacity="0.3921568691730499" fill-rule="nonzero" stroke="none" fill="#999999">
        <path d="M -2 -0.5 Q -1 0 0 0 Q -1 0 -2 0.5 z"/>
      </g>
    </g>
    <g transform="matrix(0.6896807945868502, 0, 0, 0.6896807945868502, 483.5019032741057, -75.43634622930949)">
      <g stroke-linejoin="round" stroke-width="2" stroke-linecap="round" fill="none" stroke-opacity="0.3921568691730499" stroke="#999999">
        <path d="M 82.3785171508789 472.1243591308594 C 49.27115249633789 468.5750427246094 32.994773864746094 457.96160888671875 20.086669921875 467.415771484375"/>
      </g>
    </g>
    <g transform="matrix(1.371502644749268, 0.14703363266123548, -0.14703363266123548, 1.371502644749268, 540.3167844396103, 250.178756919869)">
      <g fill-opacity="0.3921568691730499" fill-rule="nonzero" stroke="none" fill="#999999">
        <path d="M -0.00000000000000009185 0.5 C 0.27614237491539656 0.5 0.49999999999999994 0.2761423749153968 0.5 0.00000000000000012246 C 0.5000000000000001 -0.27614237491539656 0.27614237491539684 -0.4999999999999999 0.00000000000000015308 -0.5 z"/>
      </g>
    </g>
    <g transform="matrix(-4.451235572092406, 3.2601711888709057, -3.2601711888709057, -4.451235572092406, 488.4528230202301, 253.45166777557716)">
      <g fill-opacity="0.3921568691730499" fill-rule="nonzero" stroke="none" fill="#999999">
        <path d="M -2 -0.5 Q -1 0 0 0 Q -1 0 -2 0.5 z"/>
      </g>
    </g>
    <g transform="matrix(0.6896807945868502, 0, 0, 0.6896807945868502, 483.5019032741057, -75.43634622930949)">
      <g stroke-linejoin="round" stroke-width="2" stroke-linecap="round" fill="none" stroke-opacity="0.3921568691730499" stroke="#999999">
        <path d="M 82.3785171508789 472.1243591308594 C 49.27115249633789 468.5750427246094 32.994773864746094 457.96160888671875 20.086669921875 467.415771484375"/>
      </g>
    </g>
    <g transform="matrix(1.371502644749268, 0.14703363266123548, -0.14703363266123548, 1.371502644749268, 540.3167844396103, 250.178756919869)">
      <g fill-opacity="0.3921568691730499" fill-rule="nonzero" stroke="none" fill="#999999">
        <path d="M -0.00000000000000009185 0.5 C 0.27614237491539656 0.5 0.49999999999999994 0.2761423749153968 0.5 0.00000000000000012246 C 0.5000000000000001 -0.27614237491539656 0.27614237491539684 -0.4999999999999999 0.00000000000000015308 -0.5 z"/>
      </g>
    </g>
    <g transform="matrix(-4.451235572092406, 3.2601711888709057, -3.2601711888709057, -4.451235572092406, 488.4528230202301, 253.45166777557716)">
      <g fill-opacity="0.3921568691730499" fill-rule="nonzero" stroke="none" fill="#999999">
        <path d="M -2 -0.5 Q -1 0 0 0 Q -1 0 -2 0.5 z"/>
      </g>
    </g>
    <g transform="matrix(0.6896807945868502, 0, 0, 0.6896807945868502, 483.5019032741057, -75.43634622930949)">
      <g stroke-linejoin="round" stroke-width="2" stroke-linecap="round" fill="none" stroke-opacity="0.3921568691730499" stroke="#999999">
        <path d="M 70.28981018066406 571.6138305664062 C 52.456844329833984 549.4946899414062 28.27051544189453 521.1747436523438 16.26813507080078 508.3594055175781"/>
      </g>
    </g>
    <g transform="matrix(0.8657492798521158, 1.073832658342695, -1.073832658342695, 0.8657492798521158, 531.979435410865, 318.7947346325627)">
      <g fill-opacity="0.3921568691730499" fill-rule="nonzero" stroke="none" fill="#999999">
        <path d="M -0.00000000000000009185 0.5 C 0.27614237491539656 0.5 0.49999999999999994 0.2761423749153968 0.5 0.00000000000000012246 C 0.5000000000000001 -0.27614237491539656 0.27614237491539684 -0.4999999999999999 0.00000000000000015308 -0.5 z"/>
      </g>
    </g>
    <g transform="matrix(-3.771603929876411, -4.027060726528165, 4.027060726528165, -3.771603929876411, 487.1785155195278, 267.1152529071531)">
      <g fill-opacity="0.3921568691730499" fill-rule="nonzero" stroke="none" fill="#999999">
        <path d="M -2 -0.5 Q -1 0 0 0 Q -1 0 -2 0.5 z"/>
      </g>
    </g>
    <g transform="matrix(0.6896807945868502, 0, 0, 0.6896807945868502, 483.5019032741057, -75.43634622930949)">
      <g stroke-linejoin="round" stroke-width="2" stroke-linecap="round" fill="none" stroke-opacity="0.3921568691730499" stroke="#999999">
        <path d="M 58.93574905395508 417.59625244140625 C 40.142826080322266 430.1197204589844 20.86227035522461 446.437744140625 12.084382057189941 459.8149108886719"/>
      </g>
    </g>
    <g transform="matrix(1.1478437030591429, -0.7649138690305402, 0.7649138690305402, 1.1478437030591429, 524.1487575112086, 212.57176897097042)">
      <g fill-opacity="0.3921568691730499" fill-rule="nonzero" stroke="none" fill="#999999">
        <path d="M -0.00000000000000009185 0.5 C 0.27614237491539656 0.5 0.49999999999999994 0.2761423749153968 0.5 0.00000000000000012246 C 0.5000000000000001 -0.27614237491539656 0.27614237491539684 -0.4999999999999999 0.00000000000000015308 -0.5 z"/>
      </g>
    </g>
    <g transform="matrix(-3.026970631862273, 4.612988520779999, -4.612988520779999, -3.026970631862273, 485.78232851721634, 250.91514186738516)">
      <g fill-opacity="0.3921568691730499" fill-rule="nonzero" stroke="none" fill="#999999">
        <path d="M -2 -0.5 Q -1 0 0 0 Q -1 0 -2 0.5 z"/>
      </g>
    </g>
    <g transform="matrix(0.6896807945868502, 0, 0, 0.6896807945868502, 483.5019032741057, -75.43634622930949)">
      <g stroke-linejoin="round" stroke-width="2" stroke-linecap="round" fill="none" stroke-opacity="0.3921568691730499" stroke="#999999">
        <path d="M 58.93574905395508 417.59625244140625 C 40.142826080322266 430.1197204589844 20.86227035522461 446.437744140625 12.084382057189941 459.8149108886719"/>
      </g>
    </g>
    <g transform="matrix(1.1478437030591429, -0.7649138690305402, 0.7649138690305402, 1.1478437030591429, 524.1487575112086, 212.57176897097042)">
      <g fill-opacity="0.3921568691730499" fill-rule="nonzero" stroke="none" fill="#999999">
        <path d="M -0.00000000000000009185 0.5 C 0.27614237491539656 0.5 0.49999999999999994 0.2761423749153968 0.5 0.00000000000000012246 C 0.5000000000000001 -0.27614237491539656 0.27614237491539684 -0.4999999999999999 0.00000000000000015308 -0.5 z"/>
      </g>
    </g>
    <g transform="matrix(-3.026970631862273, 4.612988520779999, -4.612988520779999, -3.026970631862273, 485.78232851721634, 250.91514186738516)">
      <g fill-opacity="0.3921568691730499" fill-rule="nonzero" stroke="none" fill="#999999">
        <path d="M -2 -0.5 Q -1 0 0 0 Q -1 0 -2 0.5 z"/>
      </g>
    </g>
    <g transform="matrix(0.6896807945868502, 0, 0, 0.6896807945868502, 483.5019032741057, -75.43634622930949)">
      <g stroke-linejoin="round" stroke-width="2" stroke-linecap="round" fill="none" stroke-opacity="0.3921568691730499" stroke="#999999">
        <path d="M 3.3064937591552734 473.19207763671875 C 15.236759185791016 455.01080322265625 32.3067626953125 435.3415832519531 45.62125778198242 426.46893310546875"/>
      </g>
    </g>
    <g transform="matrix(-0.756742657965567, 1.1532471301950007, -1.1532471301950007, -0.756742657965567, 485.78232851721634, 250.91514186738516)">
      <g fill-opacity="0.3921568691730499" fill-rule="nonzero" stroke="none" fill="#999999">
        <path d="M -0.00000000000000009185 0.5 C 0.27614237491539656 0.5 0.49999999999999994 0.2761423749153968 0.5 0.00000000000000012246 C 0.5000000000000001 -0.27614237491539656 0.27614237491539684 -0.4999999999999999 0.00000000000000015308 -0.5 z"/>
      </g>
    </g>
    <g transform="matrix(4.59137481223657, -3.0596554761221646, 3.0596554761221646, 4.59137481223657, 524.1487575112086, 212.57176897097042)">
      <g fill-opacity="0.3921568691730499" fill-rule="nonzero" stroke="none" fill="#999999">
        <path d="M -2 -0.5 Q -1 0 0 0 Q -1 0 -2 0.5 z"/>
      </g>
    </g>
    <g transform="matrix(0.6896807945868502, 0, 0, 0.6896807945868502, 483.5019032741057, -75.43634622930949)">
      <g stroke-linejoin="round" stroke-width="2" stroke-linecap="round" fill="none" stroke-opacity="0.3921568691730499" stroke="#999999">
        <path d="M 3.3064937591552734 473.19207763671875 C 15.236759185791016 455.01080322265625 32.3067626953125 435.3415832519531 45.62125778198242 426.46893310546875"/>
      </g>
    </g>
    <g transform="matrix(-0.756742657965567, 1.1532471301950007, -1.1532471301950007, -0.756742657965567, 485.78232851721634, 250.91514186738516)">
      <g fill-opacity="0.3921568691730499" fill-rule="nonzero" stroke="none" fill="#999999">
        <path d="M -0.00000000000000009185 0.5 C 0.27614237491539656 0.5 0.49999999999999994 0.2761423749153968 0.5 0.00000000000000012246 C 0.5000000000000001 -0.27614237491539656 0.27614237491539684 -0.4999999999999999 0.00000000000000015308 -0.5 z"/>
      </g>
    </g>
    <g transform="matrix(4.59137481223657, -3.0596554761221646, 3.0596554761221646, 4.59137481223657, 524.1487575112086, 212.57176897097042)">
      <g fill-opacity="0.3921568691730499" fill-rule="nonzero" stroke="none" fill="#999999">
        <path d="M -2 -0.5 Q -1 0 0 0 Q -1 0 -2 0.5 z"/>
      </g>
    </g>
    <g transform="matrix(0.6896807945868502, 0, 0, 0.6896807945868502, 483.5019032741057, -75.43634622930949)">
      <g stroke-linejoin="round" stroke-width="2" stroke-linecap="round" fill="none" stroke-opacity="0.3921568691730499" stroke="#999999">
        <path d="M -43.7193603515625 569.8759155273438 C -34.144378662109375 555.380126953125 -21.59828758239746 530.7221069335938 -15.696878433227539 514.8006591796875"/>
      </g>
    </g>
    <g transform="matrix(-0.7602396993550867, 1.1509448263110982, -1.1509448263110982, -0.7602396993550867, 453.34950008801127, 317.59612800749767)">
      <g fill-opacity="0.3921568691730499" fill-rule="nonzero" stroke="none" fill="#999999">
        <path d="M -0.00000000000000009185 0.5 C 0.27614237491539656 0.5 0.49999999999999994 0.2761423749153968 0.5 0.00000000000000012246 C 0.5000000000000001 -0.27614237491539656 0.27614237491539684 -0.4999999999999999 0.00000000000000015308 -0.5 z"/>
      </g>
    </g>
    <g transform="matrix(1.9175978378947864, -5.173493290911469, 5.173493290911469, 1.9175978378947864, 476.5112634437045, 269.2648015482163)">
      <g fill-opacity="0.3921568691730499" fill-rule="nonzero" stroke="none" fill="#999999">
        <path d="M -2 -0.5 Q -1 0 0 0 Q -1 0 -2 0.5 z"/>
      </g>
    </g>
    <g transform="matrix(0.6896807945868502, 0, 0, 0.6896807945868502, 483.5019032741057, -75.43634622930949)">
      <g stroke-linejoin="round" stroke-width="2" stroke-linecap="round" fill="none" stroke-opacity="0.3921568691730499" stroke="#999999">
        <path d="M -10.136051177978516 499.798095703125 C -19.108619689941406 524.0051879882812 -26.082454681396484 543.1749877929688 -34.90090560913086 556.5254516601562"/>
      </g>
    </g>
    <g transform="matrix(0.47939945947369633, -1.293373322727867, 1.293373322727867, 0.47939945947369633, 476.5112634437045, 269.2648015482163)">
      <g fill-opacity="0.3921568691730499" fill-rule="nonzero" stroke="none" fill="#999999">
        <path d="M -0.00000000000000009185 0.5 C 0.27614237491539656 0.5 0.49999999999999994 0.2761423749153968 0.5 0.00000000000000012246 C 0.5000000000000001 -0.27614237491539656 0.27614237491539684 -0.4999999999999999 0.00000000000000015308 -0.5 z"/>
      </g>
    </g>
    <g transform="matrix(-3.0409587974203416, 4.603779305244396, -4.603779305244396, -3.0409587974203416, 453.34950008801127, 317.59612800749767)">
      <g fill-opacity="0.3921568691730499" fill-rule="nonzero" stroke="none" fill="#999999">
        <path d="M -2 -0.5 Q -1 0 0 0 Q -1 0 -2 0.5 z"/>
      </g>
    </g>
    <g transform="matrix(0.6896807945868502, 0, 0, 0.6896807945868502, 483.5019032741057, -75.43634622930949)">
      <g stroke-linejoin="round" stroke-width="2" stroke-linecap="round" fill="none" stroke-opacity="0.3921568691730499" stroke="#999999">
        <path d="M 14.64582347869873 397.4176330566406 C 19.500856399536133 422.4942932128906 20.99141502380371 446.5227966308594 12.169563293457031 459.87103271484375"/>
      </g>
    </g>
    <g transform="matrix(-0.2621861662355275, -1.3542144615689615, 1.3542144615689615, -0.2621861662355275, 493.6028464482734, 198.65496272001968)">
      <g fill-opacity="0.3921568691730499" fill-rule="nonzero" stroke="none" fill="#999999">
        <path d="M -0.00000000000000009185 0.5 C 0.27614237491539656 0.5 0.49999999999999994 0.2761423749153968 0.5 0.00000000000000012246 C 0.5000000000000001 -0.27614237491539656 0.27614237491539684 -0.4999999999999999 0.00000000000000015308 -0.5 z"/>
      </g>
    </g>
    <g transform="matrix(-3.0421308510799614, 4.603004908091262, -4.603004908091262, -3.0421308510799614, 485.8107559738647, 250.93387404228702)">
      <g fill-opacity="0.3921568691730499" fill-rule="nonzero" stroke="none" fill="#999999">
        <path d="M -2 -0.5 Q -1 0 0 0 Q -1 0 -2 0.5 z"/>
      </g>
    </g>
    <g transform="matrix(0.6896807945868502, 0, 0, 0.6896807945868502, 483.5019032741057, -75.43634622930949)">
      <g stroke-linejoin="round" stroke-width="2" stroke-linecap="round" fill="none" stroke-opacity="0.3921568691730499" stroke="#999999">
        <path d="M 14.64582347869873 397.4176330566406 C 19.500856399536133 422.4942932128906 20.99141502380371 446.5227966308594 12.169563293457031 459.87103271484375"/>
      </g>
    </g>
    <g transform="matrix(-0.2621861662355275, -1.3542144615689615, 1.3542144615689615, -0.2621861662355275, 493.6028464482734, 198.65496272001968)">
      <g fill-opacity="0.3921568691730499" fill-rule="nonzero" stroke="none" fill="#999999">
        <path d="M -0.00000000000000009185 0.5 C 0.27614237491539656 0.5 0.49999999999999994 0.2761423749153968 0.5 0.00000000000000012246 C 0.5000000000000001 -0.27614237491539656 0.27614237491539684 -0.4999999999999999 0.00000000000000015308 -0.5 z"/>
      </g>
    </g>
    <g transform="matrix(-3.0421308510799614, 4.603004908091262, -4.603004908091262, -3.0421308510799614, 485.8107559738647, 250.93387404228702)">
      <g fill-opacity="0.3921568691730499" fill-rule="nonzero" stroke="none" fill="#999999">
        <path d="M -2 -0.5 Q -1 0 0 0 Q -1 0 -2 0.5 z"/>
      </g>
    </g>
    <g transform="matrix(0.6896807945868502, 0, 0, 0.6896807945868502, 483.5019032741057, -75.43634622930949)">
      <g stroke-linejoin="round" stroke-width="2" stroke-linecap="round" fill="none" stroke-opacity="0.3921568691730499" stroke="#999999">
        <path d="M 3.3477120399475098 473.21923828125 C 14.442520141601562 456.4318542480469 20.862470626831055 429.52716064453125 17.687070846557617 413.1259460449219"/>
      </g>
    </g>
    <g transform="matrix(-0.7605327127699895, 1.1507512270228162, -1.1507512270228162, -0.7605327127699895, 485.8107559738647, 250.93387404228702)">
      <g fill-opacity="0.3921568691730499" fill-rule="nonzero" stroke="none" fill="#999999">
        <path d="M -0.00000000000000009185 0.5 C 0.27614237491539656 0.5 0.49999999999999994 0.2761423749153968 0.5 0.00000000000000012246 C 0.5000000000000001 -0.27614237491539656 0.27614237491539684 -0.4999999999999999 0.00000000000000015308 -0.5 z"/>
      </g>
    </g>
    <g transform="matrix(-1.0487446649421082, -5.416857846275846, 5.416857846275846, -1.0487446649421082, 493.6028464482734, 198.65496272001968)">
      <g fill-opacity="0.3921568691730499" fill-rule="nonzero" stroke="none" fill="#999999">
        <path d="M -2 -0.5 Q -1 0 0 0 Q -1 0 -2 0.5 z"/>
      </g>
    </g>
    <g transform="matrix(0.6896807945868502, 0, 0, 0.6896807945868502, 483.5019032741057, -75.43634622930949)">
      <g stroke-linejoin="round" stroke-width="2" stroke-linecap="round" fill="none" stroke-opacity="0.3921568691730499" stroke="#999999">
        <path d="M 3.3477120399475098 473.21923828125 C 14.442520141601562 456.4318542480469 20.862470626831055 429.52716064453125 17.687070846557617 413.1259460449219"/>
      </g>
    </g>
    <g transform="matrix(-0.7605327127699895, 1.1507512270228162, -1.1507512270228162, -0.7605327127699895, 485.8107559738647, 250.93387404228702)">
      <g fill-opacity="0.3921568691730499" fill-rule="nonzero" stroke="none" fill="#999999">
        <path d="M -0.00000000000000009185 0.5 C 0.27614237491539656 0.5 0.49999999999999994 0.2761423749153968 0.5 0.00000000000000012246 C 0.5000000000000001 -0.27614237491539656 0.27614237491539684 -0.4999999999999999 0.00000000000000015308 -0.5 z"/>
      </g>
    </g>
    <g transform="matrix(-1.0487446649421082, -5.416857846275846, 5.416857846275846, -1.0487446649421082, 493.6028464482734, 198.65496272001968)">
      <g fill-opacity="0.3921568691730499" fill-rule="nonzero" stroke="none" fill="#999999">
        <path d="M -2 -0.5 Q -1 0 0 0 Q -1 0 -2 0.5 z"/>
      </g>
    </g>
    <g transform="matrix(0.6896807945868502, 0, 0, 0.6896807945868502, 483.5019032741057, -75.43634622930949)">
      <g stroke-linejoin="round" stroke-width="2" stroke-linecap="round" fill="none" stroke-opacity="0.3921568691730499" stroke="#999999">
        <path d="M -18.92070198059082 624.078125 C -19.26888656616211 579.3643798828125 -16.532835006713867 531.2766723632812 -12.580473899841309 515.7725219726562"/>
      </g>
    </g>
    <g transform="matrix(0.01074075169236518, 1.3793197707351543, -1.3793197707351543, 0.01074075169236518, 470.45265849799085, 354.9783509049621)">
      <g fill-opacity="0.3921568691730499" fill-rule="nonzero" stroke="none" fill="#999999">
        <path d="M -0.00000000000000009185 0.5 C 0.27614237491539656 0.5 0.49999999999999994 0.2761423749153968 0.5 0.00000000000000012246 C 0.5000000000000001 -0.27614237491539656 0.27614237491539684 -0.4999999999999999 0.00000000000000015308 -0.5 z"/>
      </g>
    </g>
    <g transform="matrix(1.3629338038655896, -5.346459178305322, 5.346459178305322, 1.3629338038655896, 477.55125958726603, 269.5891207426679)">
      <g fill-opacity="0.3921568691730499" fill-rule="nonzero" stroke="none" fill="#999999">
        <path d="M -2 -0.5 Q -1 0 0 0 Q -1 0 -2 0.5 z"/>
      </g>
    </g>
    <g transform="matrix(0.6896807945868502, 0, 0, 0.6896807945868502, 483.5019032741057, -75.43634622930949)">
      <g stroke-linejoin="round" stroke-width="2" stroke-linecap="round" fill="none" stroke-opacity="0.3921568691730499" stroke="#999999">
        <path d="M -14.601471900939941 474.2735595703125 C -32.03712844848633 453.6296691894531 -60.6180534362793 420.3002624511719 -78.43875885009766 399.8302001953125"/>
      </g>
    </g>
    <g transform="matrix(0.8900283086890157, 1.0537969460099825, -1.0537969460099825, 0.8900283086890157, 473.43154853132785, 251.66101918667744)">
      <g fill-opacity="0.3921568691730499" fill-rule="nonzero" stroke="none" fill="#999999">
        <path d="M -0.00000000000000009185 0.5 C 0.27614237491539656 0.5 0.49999999999999994 0.2761423749153968 0.5 0.00000000000000012246 C 0.5000000000000001 -0.27614237491539656 0.27614237491539684 -0.4999999999999999 0.00000000000000015308 -0.5 z"/>
      </g>
    </g>
    <g transform="matrix(-3.6228218699232473, -4.161415143651323, 4.161415143651323, -3.6228218699232473, 422.15855565901825, 191.9960323480165)">
      <g fill-opacity="0.3921568691730499" fill-rule="nonzero" stroke="none" fill="#999999">
        <path d="M -2 -0.5 Q -1 0 0 0 Q -1 0 -2 0.5 z"/>
      </g>
    </g>
    <g transform="matrix(0.6896807945868502, 0, 0, 0.6896807945868502, 483.5019032741057, -75.43634622930949)">
      <g stroke-linejoin="round" stroke-width="2" stroke-linecap="round" fill="none" stroke-opacity="0.3921568691730499" stroke="#999999">
        <path d="M -13.122151374816895 473.1725158691406 C -28.013893127441406 450.35980224609375 -42.644859313964844 399.77337646484375 -45.801326751708984 360.1845703125"/>
      </g>
    </g>
    <g transform="matrix(0.7539937445852233, 1.1550462444483116, -1.1550462444483116, 0.7539937445852233, 474.45180748723305, 250.9016504919784)">
      <g fill-opacity="0.3921568691730499" fill-rule="nonzero" stroke="none" fill="#999999">
        <path d="M -0.00000000000000009185 0.5 C 0.27614237491539656 0.5 0.49999999999999994 0.2761423749153968 0.5 0.00000000000000012246 C 0.5000000000000001 -0.27614237491539656 0.27614237491539684 -0.4999999999999999 0.00000000000000015308 -0.5 z"/>
      </g>
    </g>
    <g transform="matrix(-0.4385218957052944, -5.499992076902637, 5.499992076902637, -0.4385218957052944, 451.0365632084752, 161.97605932426157)">
      <g fill-opacity="0.3921568691730499" fill-rule="nonzero" stroke="none" fill="#999999">
        <path d="M -2 -0.5 Q -1 0 0 0 Q -1 0 -2 0.5 z"/>
      </g>
    </g>
    <g transform="matrix(0.6896807945868502, 0, 0, 0.6896807945868502, 483.5019032741057, -75.43634622930949)">
      <g stroke-linejoin="round" stroke-width="2" stroke-linecap="round" fill="none" stroke-opacity="0.3921568691730499" stroke="#999999">
        <path d="M -14.246712684631348 473.9831237792969 C -33.0413818359375 450.2979736328125 -61.473182678222656 416.82232666015625 -77.75092315673828 399.213134765625"/>
      </g>
    </g>
    <g transform="matrix(0.8574052335365797, 1.080506667814632, -1.080506667814632, 0.8574052335365797, 473.6762191495186, 251.46071119955332)">
      <g fill-opacity="0.3921568691730499" fill-rule="nonzero" stroke="none" fill="#999999">
        <path d="M -0.00000000000000009185 0.5 C 0.27614237491539656 0.5 0.49999999999999994 0.2761423749153968 0.5 0.00000000000000012246 C 0.5000000000000001 -0.27614237491539656 0.27614237491539684 -0.4999999999999999 0.00000000000000015308 -0.5 z"/>
      </g>
    </g>
    <g transform="matrix(-3.745243396527359, -4.051588108356148, 4.051588108356148, -3.745243396527359, 422.3880984674217, 191.7901047084219)">
      <g fill-opacity="0.3921568691730499" fill-rule="nonzero" stroke="none" fill="#999999">
        <path d="M -2 -0.5 Q -1 0 0 0 Q -1 0 -2 0.5 z"/>
      </g>
    </g>
    <g transform="matrix(0.6896807945868502, 0, 0, 0.6896807945868502, 483.5019032741057, -75.43634622930949)">
      <g stroke-linejoin="round" stroke-width="2" stroke-linecap="round" fill="none" stroke-opacity="0.3921568691730499" stroke="#999999">
        <path d="M -110.909 491.542 C -67.46 483.181 -55.952 481.446 -31.484 478.83"/>
      </g>
    </g>
    <g transform="matrix(-1.3476134598729064, -0.29423860463435225, 0.29423860463435225, -1.3476134598729064, 410.1191342809788, 242.58681690604334)">
      <g fill-opacity="0.3921568691730499" fill-rule="nonzero" stroke="none" fill="#999999">
        <path d="M -0.00000000000000009185 0.5 C 0.27614237491539656 0.5 0.49999999999999994 0.2761423749153968 0.5 0.00000000000000012246 C 0.5000000000000001 -0.27614237491539656 0.27614237491539684 -0.4999999999999999 0.00000000000000015308 -0.5 z"/>
      </g>
    </g>
    <g transform="matrix(5.329103114548012, 1.4292915355236036, -1.4292915355236036, 5.329103114548012, 470.11469138818774, 256.88458087128924)">
      <g fill-opacity="0.3921568691730499" fill-rule="nonzero" stroke="none" fill="#999999">
        <path d="M -2 -0.5 Q -1 0 0 0 Q -1 0 -2 0.5 z"/>
      </g>
    </g>
    <g transform="matrix(0.6896807945868502, 0, 0, 0.6896807945868502, 483.5019032741057, -75.43634622930949)">
      <g stroke-linejoin="round" stroke-width="2" stroke-linecap="round" fill="none" stroke-opacity="0.3921568691730499" stroke="#999999">
        <path d="M -97.06302642822266 575.60791015625 C -78.203125 553.8032836914062 -47.42681121826172 522.6687622070312 -28.32220458984375 506.0670471191406"/>
      </g>
    </g>
    <g transform="matrix(-0.9023624541373754, 1.0432547124508804, -1.0432547124508804, -0.9023624541373754, 416.55939808208467, 321.54937461772926)">
      <g fill-opacity="0.3921568691730499" fill-rule="nonzero" stroke="none" fill="#999999">
        <path d="M -0.00000000000000009185 0.5 C 0.27614237491539656 0.5 0.49999999999999994 0.2761423749153968 0.5 0.00000000000000012246 C 0.5000000000000001 -0.27614237491539656 0.27614237491539684 -0.4999999999999999 0.00000000000000015308 -0.5 z"/>
      </g>
    </g>
    <g transform="matrix(4.164680067259243, -3.6190681447547077, 3.6190681447547077, 4.164680067259243, 472.2979829378469, 266.35024351259597)">
      <g fill-opacity="0.3921568691730499" fill-rule="nonzero" stroke="none" fill="#999999">
        <path d="M -2 -0.5 Q -1 0 0 0 Q -1 0 -2 0.5 z"/>
      </g>
    </g>
    <g transform="matrix(0.6896807945868502, 0, 0, 0.6896807945868502, 483.5019032741057, -75.43634622930949)">
      <g stroke-linejoin="round" stroke-width="2" stroke-linecap="round" fill="none" stroke-opacity="0.3921568691730499" stroke="#999999">
        <path d="M -122.19 540.121 C -85.497 520.162 -48.632 503.011 -33.752 497.129"/>
      </g>
    </g>
    <g transform="matrix(-1.342784157741028, 0.3155457168264438, -0.3155457168264438, -1.342784157741028, 402.33842024839555, 283.8626381174791)">
      <g fill-opacity="0.3921568691730499" fill-rule="nonzero" stroke="none" fill="#999999">
        <path d="M -0.00000000000000009185 0.5 C 0.27614237491539656 0.5 0.49999999999999994 0.2761423749153968 0.5 0.00000000000000012246 C 0.5000000000000001 -0.27614237491539656 0.27614237491539684 -0.4999999999999999 0.00000000000000015308 -0.5 z"/>
      </g>
    </g>
    <g transform="matrix(5.131122551333467, -2.028249408283376, 2.028249408283376, 5.131122551333467, 470.4859054775181, 263.36747089399046)">
      <g fill-opacity="0.3921568691730499" fill-rule="nonzero" stroke="none" fill="#999999">
        <path d="M -2 -0.5 Q -1 0 0 0 Q -1 0 -2 0.5 z"/>
      </g>
    </g>
    <g transform="matrix(0.6896807945868502, 0, 0, 0.6896807945868502, 483.5019032741057, -75.43634622930949)">
      <g stroke-linejoin="round" stroke-width="2" stroke-linecap="round" fill="none" stroke-opacity="0.3921568691730499" stroke="#999999">
        <path d="M -58.2181510925293 318.0604248046875 C -79.94551086425781 293.562255859375 -104.00314331054688 259.1376037597656 -111.9523696899414 241.17079162597656"/>
      </g>
    </g>
    <g transform="matrix(0.9152494571557117, 1.0319674533937448, -1.0319674533937448, 0.9152494571557117, 443.3499625692328, 143.9238202766185)">
      <g fill-opacity="0.3921568691730499" fill-rule="nonzero" stroke="none" fill="#999999">
        <path d="M -0.00000000000000009185 0.5 C 0.27614237491539656 0.5 0.49999999999999994 0.2761423749153968 0.5 0.00000000000000012246 C 0.5000000000000001 -0.27614237491539656 0.27614237491539684 -0.4999999999999999 0.00000000000000015308 -0.5 z"/>
      </g>
    </g>
    <g transform="matrix(-2.2323966926866654, -5.045653506285026, 5.045653506285026, -2.2323966926866654, 401.8257111500088, 80.80321021110049)">
      <g fill-opacity="0.3921568691730499" fill-rule="nonzero" stroke="none" fill="#999999">
        <path d="M -2 -0.5 Q -1 0 0 0 Q -1 0 -2 0.5 z"/>
      </g>
    </g>
    <g transform="matrix(0.6896807945868502, 0, 0, 0.6896807945868502, 483.5019032741057, -75.43634622930949)">
      <g stroke-linejoin="round" stroke-width="2" stroke-linecap="round" fill="none" stroke-opacity="0.3921568691730499" stroke="#999999">
        <path d="M -207.41778564453125 421.6156311035156 C -181.2467498779297 410.7335510253906 -145.4295654296875 395.840576171875 -127.41786193847656 388.3511962890625"/>
      </g>
    </g>
    <g transform="matrix(-1.273645661905482, 0.529589578444613, -0.529589578444613, -1.273645661905482, 340.44984005934043, 215.34385724039947)">
      <g fill-opacity="0.3921568691730499" fill-rule="nonzero" stroke="none" fill="#999999">
        <path d="M -0.00000000000000009185 0.5 C 0.27614237491539656 0.5 0.49999999999999994 0.2761423749153968 0.5 0.00000000000000012246 C 0.5000000000000001 -0.27614237491539656 0.27614237491539684 -0.4999999999999999 0.00000000000000015308 -0.5 z"/>
      </g>
    </g>
    <g transform="matrix(5.0945835689431185, -2.1183560980296816, 2.1183560980296816, 5.0945835689431185, 405.8134175954741, 188.1653025805977)">
      <g fill-opacity="0.3921568691730499" fill-rule="nonzero" stroke="none" fill="#999999">
        <path d="M -2 -0.5 Q -1 0 0 0 Q -1 0 -2 0.5 z"/>
      </g>
    </g>
    <g transform="matrix(0.6896807945868502, 0, 0, 0.6896807945868502, 483.5019032741057, -75.43634622930949)">
      <g stroke-dasharray="8,4" stroke-width="2" stroke-linecap="butt" fill="none" stroke-opacity="0.3921568691730499" stroke="#999999">
        <path d="M -99.09058380126953 361.4520568847656 C -99.84999084472656 323.0863952636719 -107.19270324707031 269.82305908203125 -115.4909896850586 242.485107421875" style="stroke-dasharray: none;"/>
      </g>
    </g>
    <g transform="matrix(0.0272976743914287, 1.3790914511592824, -1.3790914511592824, 0.0272976743914287, 415.1610307019713, 173.85019556802703)">
      <g fill-opacity="0.3921568691730499" fill-rule="nonzero" stroke="none" fill="#999999">
        <path d="M -0.00000000000000009185 0.5 C 0.27614237491539656 0.5 0.49999999999999994 0.2761423749153968 0.5 0.00000000000000012246 C 0.5000000000000001 -0.27614237491539656 0.27614237491539684 -0.4999999999999999 0.00000000000000015308 -0.5 z"/>
      </g>
    </g>
    <g transform="matrix(-1.6025857392075313, -5.279576995128813, 5.279576995128813, -1.6025857392075313, 400.6448159015503, 81.24181671984059)">
      <g fill-opacity="0.3921568691730499" fill-rule="nonzero" stroke="none" fill="#999999">
        <path d="M -2 -0.5 Q -1 0 0 0 Q -1 0 -2 0.5 z"/>
      </g>
    </g>
    <g transform="matrix(0.6896807945868502, 0, 0, 0.6896807945868502, 483.5019032741057, -75.43634622930949)">
      <g fill-opacity="1" fill-rule="nonzero" stroke="none" fill="#cccccc">
        <path d="M 148.9606475830078 555.7725219726562 C 148.9606475830078 564.0567932201182 142.24491883046971 570.7725219726562 133.9606475830078 570.7725219726562 C 125.67637633554591 570.7725219726562 118.96064758300781 564.0567932201182 118.96064758300781 555.7725219726562 C 118.96064758300781 547.4882507251943 125.67637633554591 540.7725219726562 133.9606475830078 540.7725219726562 C 142.24491883046971 540.7725219726562 148.9606475830078 547.4882507251943 148.9606475830078 555.7725219726562 z"/>
      </g>
    </g>
    <g transform="matrix(0.6896807945868502, 0, 0, 0.6896807945868502, 517.1054571172072, 311.51840019475117)">
      <text fill-opacity="1" font-style="normal" font-family="Helvetica" font-weight="normal" stroke="none" fill="#000000" font-size="14" x="0" y="0" style="white-space: pre;">Abū al-Faraj b. al-Ṭayyib</text>
    </g>
    <g transform="matrix(0.6896807945868502, 0, 0, 0.6896807945868502, 483.5019032741057, -75.43634622930949)">
      <g fill-opacity="1" fill-rule="nonzero" stroke="none" fill="#cccccc">
        <path d="M 70.68434143066406 618.8667602539062 C 70.68434143066406 627.1510315013682 63.968612678125965 633.8667602539062 55.68434143066406 633.8667602539062 C 47.40007018320216 633.8667602539062 40.68434143066406 627.1510315013682 40.68434143066406 618.8667602539062 C 40.68434143066406 610.5824890064443 47.40007018320216 603.8667602539062 55.68434143066406 603.8667602539062 C 63.968612678125965 603.8667602539062 70.68434143066406 610.5824890064443 70.68434143066406 618.8667602539062 z"/>
      </g>
    </g>
    <g transform="matrix(0.6896807945868502, 0, 0, 0.6896807945868502, 484.00789299402345, 355.03328458641573)">
      <text fill-opacity="1" font-style="normal" font-family="Helvetica" font-weight="normal" stroke="none" fill="#000000" font-size="14" x="0" y="0" style="white-space: pre;">Ḥunayn b. Isḥaq</text>
    </g>
    <g transform="matrix(0.6896807945868502, 0, 0, 0.6896807945868502, 483.5019032741057, -75.43634622930949)">
      <g fill-opacity="1" fill-rule="nonzero" stroke="none" fill="#cccccc">
        <path d="M 158.30953979492188 508.83013916015625 C 158.30953979492188 517.1144104076182 151.59381104238378 523.8301391601562 143.30953979492188 523.8301391601562 C 135.02526854745997 523.8301391601562 128.30953979492188 517.1144104076182 128.30953979492188 508.83013916015625 C 128.30953979492188 500.54586791269435 135.02526854745997 493.83013916015625 143.30953979492188 493.83013916015625 C 151.59381104238378 493.83013916015625 158.30953979492188 500.54586791269435 158.30953979492188 508.83013916015625 z"/>
      </g>
    </g>
    <g transform="matrix(0.6896807945868502, 0, 0, 0.6896807945868502, 558.5969403849701, 279.1431403168261)">
      <text fill-opacity="1" font-style="normal" font-family="Helvetica" font-weight="normal" stroke="none" fill="#000000" font-size="14" x="0" y="0" style="white-space: pre;">Alexander</text>
    </g>
    <g transform="matrix(0.6896807945868502, 0, 0, 0.6896807945868502, 483.5019032741057, -75.43634622930949)">
      <g fill-opacity="1" fill-rule="nonzero" stroke="none" fill="#cccccc">
        <path d="M 112.29305267333984 473.7232971191406 C 112.29305267333984 482.0075683666025 105.57732392080175 488.7232971191406 97.29305267333984 488.7232971191406 C 89.00878142587794 488.7232971191406 82.29305267333984 482.0075683666025 82.29305267333984 473.7232971191406 C 82.29305267333984 465.4390258716787 89.00878142587794 458.7232971191406 97.29305267333984 458.7232971191406 C 105.57732392080175 458.7232971191406 112.29305267333984 465.4390258716787 112.29305267333984 473.7232971191406 z"/>
      </g>
    </g>
    <g transform="matrix(0.6896807945868502, 0, 0, 0.6896807945868502, 533.2014098979354, 254.9306256025434)">
      <text fill-opacity="1" font-style="normal" font-family="Helvetica" font-weight="normal" stroke="none" fill="#000000" font-size="14" x="0" y="0" style="white-space: pre;">Al-Rāzī</text>
    </g>
    <g transform="matrix(0.6896807945868502, 0, 0, 0.6896807945868502, 483.5019032741057, -75.43634622930949)">
      <g fill-opacity="1" fill-rule="nonzero" stroke="none" fill="#cccccc">
        <path d="M 94.70448303222656 583.2913208007812 C 94.70448303222656 591.5755920482432 87.98875427968846 598.2913208007812 79.70448303222656 598.2913208007812 C 71.42021178476466 598.2913208007812 64.70448303222656 591.5755920482432 64.70448303222656 583.2913208007812 C 64.70448303222656 575.0070495533193 71.42021178476466 568.2913208007812 79.70448303222656 568.2913208007812 C 87.98875427968846 568.2913208007812 94.70448303222656 575.0070495533193 94.70448303222656 583.2913208007812 z"/>
      </g>
    </g>
    <g transform="matrix(0.6896807945868502, 0, 0, 0.6896807945868502, 516.6226721420412, 330.49758723660807)">
      <text fill-opacity="1" font-style="normal" font-family="Helvetica" font-weight="normal" stroke="none" fill="#000000" font-size="14" x="0" y="0" style="white-space: pre;">Al-Fārābī</text>
    </g>
    <g transform="matrix(0.6896807945868502, 0, 0, 0.6896807945868502, 483.5019032741057, -75.43634622930949)">
      <g fill-opacity="1" fill-rule="nonzero" stroke="none" fill="#cccccc">
        <path d="M 86.41808319091797 409.2781066894531 C 86.41808319091797 417.562377936915 79.70235443837987 424.2781066894531 71.41808319091797 424.2781066894531 C 63.13381194345607 424.2781066894531 56.41808319091797 417.562377936915 56.41808319091797 409.2781066894531 C 56.41808319091797 400.9938354419912 63.13381194345607 394.2781066894531 71.41808319091797 394.2781066894531 C 79.70235443837987 394.2781066894531 86.41808319091797 400.9938354419912 86.41808319091797 409.2781066894531 z"/>
      </g>
    </g>
    <g transform="matrix(0.6896807945868502, 0, 0, 0.6896807945868502, 516.7090348349243, 210.48401545969563)">
      <text fill-opacity="1" font-style="normal" font-family="Helvetica" font-weight="normal" stroke="none" fill="#000000" font-size="14" x="0" y="0" style="white-space: pre;">Yatīma</text>
    </g>
    <g transform="matrix(0.6896807945868502, 0, 0, 0.6896807945868502, 483.5019032741057, -75.43634622930949)">
      <g fill-opacity="1" fill-rule="nonzero" stroke="none" fill="#cccccc">
        <path d="M -36.986663818359375 582.3919677734375 C -36.986663818359375 590.6762390208994 -43.70239257089747 597.3919677734375 -51.986663818359375 597.3919677734375 C -60.27093506582128 597.3919677734375 -66.98666381835938 590.6762390208994 -66.98666381835938 582.3919677734375 C -66.98666381835938 574.1076965259756 -60.27093506582128 567.3919677734375 -51.986663818359375 567.3919677734375 C -43.70239257089747 567.3919677734375 -36.986663818359375 574.1076965259756 -36.986663818359375 582.3919677734375 z"/>
      </g>
    </g>
    <g transform="matrix(0.6896807945868502, 0, 0, 0.6896807945868502, 430.7788078854028, 329.87732072609555)">
      <text fill-opacity="1" font-style="normal" font-family="Helvetica" font-weight="normal" stroke="none" fill="#000000" font-size="14" x="0" y="0" style="white-space: pre;">Riḍwān</text>
    </g>
    <g transform="matrix(0.6896807945868502, 0, 0, 0.6896807945868502, 483.5019032741057, -75.43634622930949)">
      <g fill-opacity="1" fill-rule="nonzero" stroke="none" fill="#cccccc">
        <path d="M 26.794654846191406 382.69110107421875 C 26.794654846191406 390.97537232168065 20.078926093653305 397.69110107421875 11.794654846191406 397.69110107421875 C 3.510383598729506 397.69110107421875 -3.2053451538085938 390.97537232168065 -3.2053451538085938 382.69110107421875 C -3.2053451538085938 374.40682982675685 3.510383598729506 367.69110107421875 11.794654846191406 367.69110107421875 C 20.078926093653305 367.69110107421875 26.794654846191406 374.40682982675685 26.794654846191406 382.69110107421875 z"/>
      </g>
    </g>
    <g transform="matrix(0.6896807945868502, 0, 0, 0.6896807945868502, 469.84314325612104, 192.1474683012957)">
      <text fill-opacity="1" font-style="normal" font-family="Helvetica" font-weight="normal" stroke="none" fill="#000000" font-size="14" x="0" y="0" style="white-space: pre;">al-Ḥākim</text>
    </g>
    <g transform="matrix(0.6896807945868502, 0, 0, 0.6896807945868502, 483.5019032741057, -75.43634622930949)">
      <g fill-opacity="1" fill-rule="nonzero" stroke="none" fill="#cccccc">
        <path d="M -3.8039016723632812 639.0776977539062 C -3.8039016723632812 647.3619690013682 -10.519630424901383 654.0776977539062 -18.80390167236328 654.0776977539062 C -27.088172919825183 654.0776977539062 -33.80390167236328 647.3619690013682 -33.80390167236328 639.0776977539062 C -33.80390167236328 630.7934265064443 -27.088172919825183 624.0776977539062 -18.80390167236328 624.0776977539062 C -10.519630424901383 624.0776977539062 -3.8039016723632812 630.7934265064443 -3.8039016723632812 639.0776977539062 z"/>
      </g>
    </g>
    <g transform="matrix(0.6896807945868502, 0, 0, 0.6896807945868502, 438.0683758681239, 368.9723800207609)">
      <text fill-opacity="1" font-style="normal" font-family="Helvetica" font-weight="normal" stroke="none" fill="#000000" font-size="14" x="0" y="0" style="white-space: pre;">Themistius (?)</text>
    </g>
    <g transform="matrix(0.6896807945868502, 0, 0, 0.6896807945868502, 483.5019032741057, -75.43634622930949)">
      <g fill-opacity="1" fill-rule="nonzero" stroke="none" fill="#cccccc">
        <path d="M 10.077224731445312 485.7331848144531 C 10.077224731445312 494.017456061915 3.361495978907211 500.7331848144531 -4.9227752685546875 500.7331848144531 C -13.207046516016588 500.7331848144531 -19.922775268554688 494.017456061915 -19.922775268554688 485.7331848144531 C -19.922775268554688 477.4489135669912 -13.207046516016588 470.7331848144531 -4.9227752685546875 470.7331848144531 C 3.361495978907211 470.7331848144531 10.077224731445312 477.4489135669912 10.077224731445312 485.7331848144531 z"/>
      </g>
    </g>
    <g transform="matrix(0.6896807945868502, 0, 0, 0.6896807945868502, 454.2848144187683, 263.21361449114534)">
      <text fill-opacity="1" font-style="normal" font-family="Helvetica" font-weight="normal" stroke="none" fill="#000000" font-size="14" x="0" y="0" style="white-space: pre;">Ibn Riḍwān</text>
    </g>
    <g transform="matrix(0.6896807945868502, 0, 0, 0.6896807945868502, 483.5019032741057, -75.43634622930949)">
      <g fill-opacity="1" fill-rule="nonzero" stroke="none" fill="#cccccc">
        <path d="M -33.26518249511719 329.28265380859375 C -33.26518249511719 337.56692505605565 -39.980911247655285 344.28265380859375 -48.26518249511719 344.28265380859375 C -56.54945374257909 344.28265380859375 -63.26518249511719 337.56692505605565 -63.26518249511719 329.28265380859375 C -63.26518249511719 320.99838256113185 -56.54945374257909 314.28265380859375 -48.26518249511719 314.28265380859375 C -39.980911247655285 314.28265380859375 -33.26518249511719 320.99838256113185 -33.26518249511719 329.28265380859375 z"/>
      </g>
    </g>
    <g transform="matrix(0.6896807945868502, 0, 0, 0.6896807945868502, 400.24648883069597, 155.3126879534896)">
      <text fill-opacity="1" font-style="normal" font-family="Helvetica" font-weight="normal" stroke="none" fill="#000000" font-size="14" x="0" y="0" style="white-space: pre;">Muḥammad al-Māliqī</text>
    </g>
    <g transform="matrix(0.689681, 0, 0, 0.689681, 486.501892, -79.436348)">
      <g fill-opacity="1" fill-rule="nonzero" stroke="none" fill="#cccccc">
        <path d="M -206.26817321777344 427.37469482421875 C -206.26817321777344 435.65896607168065 -212.98390197031154 442.37469482421875 -221.26817321777344 442.37469482421875 C -229.55244446523534 442.37469482421875 -236.26817321777344 435.65896607168065 -236.26817321777344 427.37469482421875 C -236.26817321777344 419.09042357675685 -229.55244446523534 412.37469482421875 -221.26817321777344 412.37469482421875 C -212.98390197031154 412.37469482421875 -206.26817321777344 419.09042357675685 -206.26817321777344 427.37469482421875 z"/>
      </g>
    </g>
    <g transform="matrix(0.689681, 0, 0, 0.689681, 300.989471, 218.96489)">
      <text fill-opacity="1" font-style="normal" font-family="Helvetica" font-weight="normal" stroke="none" fill="#000000" font-size="14" x="0" y="0" style="white-space: pre;">[al-Mustanṣir]</text>
    </g>
    <g transform="matrix(0.689681, 0, 0, 0.689681, 484.279083, -63.778492)">
      <g fill-opacity="1" fill-rule="nonzero" stroke="none" fill="#cccccc">
        <path d="M -117.284912109375 524.3956298828125 C -117.284912109375 532.6799011302744 -124.0006408619131 539.3956298828125 -132.284912109375 539.3956298828125 C -140.5691833568369 539.3956298828125 -147.284912109375 532.6799011302744 -147.284912109375 524.3956298828125 C -147.284912109375 516.1113586353506 -140.5691833568369 509.3956298828125 -132.284912109375 509.3956298828125 C -124.0006408619131 509.3956298828125 -117.284912109375 516.1113586353506 -117.284912109375 524.3956298828125 z"/>
      </g>
    </g>
    <g transform="matrix(0.689681, 0, 0, 0.689681, 375.267548, 300.759033)">
      <text fill-opacity="1" font-style="normal" font-family="Helvetica" font-weight="normal" stroke="none" fill="#000000" font-size="14" x="0" y="0" style="white-space: pre;">Ptolemy</text>
    </g>
    <g transform="matrix(0.6896807945868502, 0, 0, 0.6896807945868502, 483.5019032741057, -75.43634622930949)">
      <g fill-opacity="1" fill-rule="nonzero" stroke="none" fill="#cccccc">
        <path d="M -83.79373168945312 376.4491271972656 C -83.79373168945312 384.7333984447275 -90.50946044199122 391.4491271972656 -98.79373168945312 391.4491271972656 C -107.07800293691503 391.4491271972656 -113.79373168945312 384.7333984447275 -113.79373168945312 376.4491271972656 C -113.79373168945312 368.1648559498037 -107.07800293691503 361.4491271972656 -98.79373168945312 361.4491271972656 C -90.50946044199122 361.4491271972656 -83.79373168945312 368.1648559498037 -83.79373168945312 376.4491271972656 z"/>
      </g>
    </g>
    <g transform="matrix(0.6896807945868502, 0, 0, 0.6896807945868502, 392.10621175324195, 187.84249879804833)">
      <text fill-opacity="1" font-style="normal" font-family="Helvetica" font-weight="normal" stroke="none" fill="#000000" font-size="14" x="0" y="0" style="white-space: pre;">Ibn Baṭlān</text>
    </g>
    <g transform="matrix(0.6896807945868502, 0, 0, 0.6896807945868502, 483.5019032741057, -75.43634622930949)">
      <g fill-opacity="1" fill-rule="nonzero" stroke="none" fill="#cccccc">
        <path d="M -91.8758544921875 586.952880859375 C -91.8758544921875 595.2371521068369 -98.5915832447256 601.952880859375 -106.8758544921875 601.952880859375 C -115.1601257396494 601.952880859375 -121.8758544921875 595.2371521068369 -121.8758544921875 586.952880859375 C -121.8758544921875 578.6686096119131 -115.1601257396494 571.952880859375 -106.8758544921875 571.952880859375 C -98.5915832447256 571.952880859375 -91.8758544921875 578.6686096119131 -91.8758544921875 586.952880859375 z"/>
      </g>
    </g>
    <g transform="matrix(0.6896807945868502, 0, 0, 0.6896807945868502, 398.29037620472826, 333.0228948872465)">
      <text fill-opacity="1" font-style="normal" font-family="Helvetica" font-weight="normal" stroke="none" fill="#000000" font-size="14" x="0" y="0" style="white-space: pre;">Plato</text>
    </g>
    <g transform="matrix(0.689681, 0, 0, 0.689681, 486.610657, -49.789066)">
      <g fill-opacity="1" fill-rule="nonzero" stroke="none" fill="#cccccc">
        <path d="M -106.05581665039062 457.9167175292969 C -106.05581665039062 466.2009887767588 -112.77154540292872 472.9167175292969 -121.05581665039062 472.9167175292969 C -129.34008789785253 472.9167175292969 -136.05581665039062 466.2009887767588 -136.05581665039062 457.9167175292969 C -136.05581665039062 449.632446281835 -129.34008789785253 442.9167175292969 -121.05581665039062 442.9167175292969 C -112.77154540292872 442.9167175292969 -106.05581665039062 449.632446281835 -106.05581665039062 457.9167175292969 z"/>
      </g>
    </g>
    <g transform="matrix(0.689681, 0, 0, 0.689681, 383.295837, 269.676422)">
      <text fill-opacity="1" font-style="normal" font-family="Helvetica" font-weight="normal" stroke="none" fill="#000000" font-size="14" x="0" y="0" style="white-space: pre;">Aristotle</text>
    </g>
    <g transform="matrix(0.6896807945868502, 0, 0, 0.6896807945868502, 483.5019032741057, -75.43634622930949)">
      <g fill-opacity="1" fill-rule="nonzero" stroke="none" fill="#cccccc">
        <path d="M -109.49517822265625 212.8215789794922 C -109.49517822265625 221.1058502269541 -116.21090697519435 227.8215789794922 -124.49517822265625 227.8215789794922 C -132.77944947011815 227.8215789794922 -139.49517822265625 221.1058502269541 -139.49517822265625 212.8215789794922 C -139.49517822265625 204.53730773203029 -132.77944947011815 197.8215789794922 -124.49517822265625 197.8215789794922 C -116.21090697519435 197.8215789794922 -109.49517822265625 204.53730773203029 -109.49517822265625 212.8215789794922 z"/>
      </g>
    </g>
    <g transform="matrix(0.6896807945868502, 0, 0, 0.6896807945868502, 358.7420403722144, 74.9917213269162)">
      <text fill-opacity="1" font-style="normal" font-family="Helvetica" font-weight="normal" stroke="none" fill="#000000" font-size="14" x="0" y="0" style="white-space: pre;">Ibn Abī ʾUṣaybiʿa</text>
    </g>
  </g>
</svg>