<?xml version="1.0" encoding="utf-8"?>
<svg version="1.1" baseProfile="full" x="0px" y="0px" width="1029px" height="425px" viewBox="0 0 1029 425" xmlns="http://www.w3.org/2000/svg">
  <title/>
  <desc>Creator: FreeHEP Graphics2D Driver Producer: org.freehep.graphicsio.svg.SVGGraphics2D Revision Source:  Date: Tuesday, August 15, 2017 5:02:45 PM CEST</desc>
  <g stroke-linejoin="miter" stroke-dashoffset="0" stroke-dasharray="none" stroke-width="1" stroke-miterlimit="10" stroke-linecap="square">
    <g fill-opacity="1" fill-rule="nonzero" stroke="none" fill="#ffffff" transform="matrix(0.309832, 0, 0, 1, 245.86026, 0)">
      <path d="M 0 0 L 1029 0 L 1029 425 L 0 425 L 0 0 z"/>
    </g>
    <g transform="matrix(0.6759561467745724, 0, 0, 0.6759561467745724, 514.5, 212.5)">
      <g stroke-dasharray="8,4" stroke-width="2" stroke-linecap="butt" fill="none" stroke-opacity="0.3921568691730499" stroke="#999999">
        <path d="M -48.92631149291992 47.87482452392578 L -46.61597754379918 86.8696371709982"/>
      </g>
    </g>
    <g transform="matrix(-0.07995682428797743, -1.3495457590237876, 1.3495457590237876, -0.07995682428797743, 481.42795900735337, 244.86128191270166)">
      <g fill-opacity="0.3921568691730499" fill-rule="nonzero" stroke="none" fill="#999999">
        <path d="M -0.00000000000000009185 0.5 C 0.27614237491539656 0.5 0.49999999999999994 0.2761423749153968 0.5 0.00000000000000012246 C 0.5000000000000001 -0.27614237491539656 0.27614237491539684 -0.4999999999999999 0.00000000000000015308 -0.5 z"/>
      </g>
    </g>
    <g transform="matrix(0.3198272971519097, 5.39818303609515, -5.39818303609515, 0.3198272971519097, 483.6292980356673, 282.0164312860034)">
      <g fill-opacity="0.3921568691730499" fill-rule="nonzero" stroke="none" fill="#999999">
        <path d="M -2 -0.5 Q -1 0 0 0 Q -1 0 -2 0.5 z"/>
      </g>
    </g>
    <g transform="matrix(0.6759561467745724, 0, 0, 0.6759561467745724, 514.5, 212.5)">
      <g stroke-dasharray="8,4" stroke-width="2" stroke-linecap="butt" fill="none" stroke-opacity="0.3921568691730499" stroke="#999999">
        <path d="M -141.49020385742188 -38.67723846435547 C -126.88648986816406 -14.850519180297852 -98.56433868408203 11.650152206420898 -78.23091888427734 20.5136661529541"/>
      </g>
    </g>
    <g transform="matrix(-0.7064666168559425, -1.1526368763480663, 1.1526368763480663, -0.7064666168559425, 418.85882699418835, 186.355882919753)">
      <g fill-opacity="0.3921568691730499" fill-rule="nonzero" stroke="none" fill="#999999">
        <path d="M -0.00000000000000009185 0.5 C 0.27614237491539656 0.5 0.49999999999999994 0.2761423749153968 0.5 0.00000000000000012246 C 0.5000000000000001 -0.27614237491539656 0.27614237491539684 -0.4999999999999999 0.00000000000000015308 -0.5 z"/>
      </g>
    </g>
    <g transform="matrix(4.957149836045273, 2.1608644321625685, -2.1608644321625685, 4.957149836045273, 471.5336297646824, 230.688067798341)">
      <g fill-opacity="0.3921568691730499" fill-rule="nonzero" stroke="none" fill="#999999">
        <path d="M -2 -0.5 Q -1 0 0 0 Q -1 0 -2 0.5 z"/>
      </g>
    </g>
    <g transform="matrix(0.6759561467745724, 0, 0, 0.6759561467745724, 514.5, 212.5)">
      <g stroke-linejoin="round" stroke-width="2" stroke-linecap="round" fill="none" stroke-opacity="0.3921568691730499" stroke="#999999">
        <path d="M -270.4856872558594 50.67289352416992 C -261.5705261230469 71.65965270996094 -252.6036834716797 97.46858215332031 -249.49925231933594 113.16452026367188"/>
      </g>
    </g>
    <g transform="matrix(-0.5285760956693111, -1.244296652947478, 1.244296652947478, -0.5285760956693111, 331.66353708485724, 246.7526538525161)">
      <g fill-opacity="0.3921568691730499" fill-rule="nonzero" stroke="none" fill="#999999">
        <path d="M -0.00000000000000009185 0.5 C 0.27614237491539656 0.5 0.49999999999999994 0.2761423749153968 0.5 0.00000000000000012246 C 0.5000000000000001 -0.27614237491539656 0.27614237491539684 -0.4999999999999999 0.00000000000000015308 -0.5 z"/>
      </g>
    </g>
    <g transform="matrix(1.0492300193105957, 5.30488321810824, -5.30488321810824, 1.0492300193105957, 347.9479060987501, 299.60401891411004)">
      <g fill-opacity="0.3921568691730499" fill-rule="nonzero" stroke="none" fill="#999999">
        <path d="M -2 -0.5 Q -1 0 0 0 Q -1 0 -2 0.5 z"/>
      </g>
    </g>
    <g transform="matrix(0.6759561467745724, 0, 0, 0.6759561467745724, 514.5, 212.5)">
      <g stroke-linejoin="round" stroke-width="2" stroke-linecap="round" fill="none" stroke-opacity="0.3921568691730499" stroke="#999999">
        <path d="M -246.3948211669922 128.86045837402344 C -250.78468322753906 106.66542053222656 -257.9742126464844 80.1256103515625 -264.2299499511719 65.39925384521484"/>
      </g>
    </g>
    <g transform="matrix(0.26230750482764825, 1.3262208045270598, -1.3262208045270598, 0.26230750482764825, 347.9479060987501, 299.60401891411004)">
      <g fill-opacity="0.3921568691730499" fill-rule="nonzero" stroke="none" fill="#999999">
        <path d="M -0.00000000000000009185 0.5 C 0.27614237491539656 0.5 0.49999999999999994 0.2761423749153968 0.5 0.00000000000000012246 C 0.5000000000000001 -0.27614237491539656 0.27614237491539684 -0.4999999999999999 0.00000000000000015308 -0.5 z"/>
      </g>
    </g>
    <g transform="matrix(-2.114304382677241, -4.9771866117899135, 4.9771866117899135, -2.114304382677241, 331.66353708485724, 246.7526538525161)">
      <g fill-opacity="0.3921568691730499" fill-rule="nonzero" stroke="none" fill="#999999">
        <path d="M -2 -0.5 Q -1 0 0 0 Q -1 0 -2 0.5 z"/>
      </g>
    </g>
    <g transform="matrix(0.6759561467745724, 0, 0, 0.6759561467745724, 514.5, 212.5)">
      <g stroke-dasharray="8,4" stroke-width="2" stroke-linecap="butt" fill="none" stroke-opacity="0.3921568691730499" stroke="#999999">
        <path d="M -161.8275604248047 -43.17290115356445 C -190.2545166015625 -24.310897827148438 -230.30624389648438 3.357135534286499 -251.2855987548828 18.625381469726562"/>
      </g>
    </g>
    <g transform="matrix(1.1264896302471972, -0.7474543212764525, 0.7474543212764525, 1.1264896302471972, 405.11166581331975, 183.3170120911571)">
      <g fill-opacity="0.3921568691730499" fill-rule="nonzero" stroke="none" fill="#999999">
        <path d="M -0.00000000000000009185 0.5 C 0.27614237491539656 0.5 0.49999999999999994 0.2761423749153968 0.5 0.00000000000000012246 C 0.5000000000000001 -0.27614237491539656 0.27614237491539684 -0.4999999999999999 0.00000000000000015308 -0.5 z"/>
      </g>
    </g>
    <g transform="matrix(-4.372316728695434, 3.1820615982659737, -3.1820615982659737, -4.372316728695434, 335.8973189332418, 231.4540636740857)">
      <g fill-opacity="0.3921568691730499" fill-rule="nonzero" stroke="none" fill="#999999">
        <path d="M -2 -0.5 Q -1 0 0 0 Q -1 0 -2 0.5 z"/>
      </g>
    </g>
    <g transform="matrix(0.6759561467745724, 0, 0, 0.6759561467745724, 514.5, 212.5)">
      <g stroke-dasharray="8,4" stroke-width="2" stroke-linecap="butt" fill="none" stroke-opacity="0.3921568691730499" stroke="#999999">
        <path d="M -230.27101135253906 150.67514038085938 C -203.7753448486328 164.91163635253906 -168.16514587402344 185.3440704345703 -150.73338317871094 196.31228637695312"/>
      </g>
    </g>
    <g transform="matrix(-1.190889639915073, -0.6398817976722393, 0.6398817976722393, -1.190889639915073, 358.8468944522539, 314.3497873065635)">
      <g fill-opacity="0.3921568691730499" fill-rule="nonzero" stroke="none" fill="#999999">
        <path d="M -0.00000000000000009185 0.5 C 0.27614237491539656 0.5 0.49999999999999994 0.2761423749153968 0.5 0.00000000000000012246 C 0.5000000000000001 -0.27614237491539656 0.27614237491539684 -0.4999999999999999 0.00000000000000015308 -0.5 z"/>
      </g>
    </g>
    <g transform="matrix(4.576999829526933, 2.879885787960934, -2.879885787960934, 4.576999829526933, 421.76484226038247, 350.95826477872276)">
      <g fill-opacity="0.3921568691730499" fill-rule="nonzero" stroke="none" fill="#999999">
        <path d="M -2 -0.5 Q -1 0 0 0 Q -1 0 -2 0.5 z"/>
      </g>
    </g>
    <g transform="matrix(0.6759561467745724, 0, 0, 0.6759561467745724, 514.5, 212.5)">
      <g stroke-dasharray="8,4" stroke-width="2" stroke-linecap="butt" fill="none" stroke-opacity="0.3921568691730499" stroke="#999999">
        <path d="M -209.26329040527344 44.68050003051758 C -223.13197326660156 69.33570861816406 -235.7015380859375 97.22427368164062 -238.35101318359375 113.00337982177734"/>
      </g>
    </g>
    <g transform="matrix(0.6627950680518443, -1.1782909433647788, 1.1782909433647788, 0.6627950680518443, 373.047192556283, 242.7020586365898)">
      <g fill-opacity="0.3921568691730499" fill-rule="nonzero" stroke="none" fill="#999999">
        <path d="M -0.00000000000000009185 0.5 C 0.27614237491539656 0.5 0.49999999999999994 0.2761423749153968 0.5 0.00000000000000012246 C 0.5000000000000001 -0.27614237491539656 0.27614237491539684 -0.4999999999999999 0.00000000000000015308 -0.5 z"/>
      </g>
    </g>
    <g transform="matrix(-0.8954681154401157, 5.332992260018673, -5.332992260018673, -0.8954681154401157, 351.5942282563435, 299.5513129828659)">
      <g fill-opacity="0.3921568691730499" fill-rule="nonzero" stroke="none" fill="#999999">
        <path d="M -2 -0.5 Q -1 0 0 0 Q -1 0 -2 0.5 z"/>
      </g>
    </g>
    <g transform="matrix(0.6759561467745724, 0, 0, 0.6759561467745724, 514.5, 212.5)">
      <g stroke-linejoin="round" stroke-width="2" stroke-linecap="round" fill="none" stroke-opacity="0.3921568691730499" stroke="#999999">
        <path d="M -124.41234588623047 41.76614761352539 C -129.9126739501953 19.227182388305664 -136.43321228027344 -6.269898891448975 -140.82318115234375 -21.655874252319336"/>
      </g>
    </g>
    <g transform="matrix(0.3205103677024996, 1.313369694200577, -1.313369694200577, 0.3205103677024996, 430.40271006355835, 240.73208420645662)">
      <g fill-opacity="0.3921568691730499" fill-rule="nonzero" stroke="none" fill="#999999">
        <path d="M -0.00000000000000009185 0.5 C 0.27614237491539656 0.5 0.49999999999999994 0.2761423749153968 0.5 0.00000000000000012246 C 0.5000000000000001 -0.27614237491539656 0.27614237491539684 -0.4999999999999999 0.00000000000000015308 -0.5 z"/>
      </g>
    </g>
    <g transform="matrix(-1.4837099405135095, -5.200122537364899, 5.200122537364899, -1.4837099405135095, 416.3422889627714, 187.4613330991021)">
      <g fill-opacity="0.3921568691730499" fill-rule="nonzero" stroke="none" fill="#999999">
        <path d="M -2 -0.5 Q -1 0 0 0 Q -1 0 -2 0.5 z"/>
      </g>
    </g>
    <g transform="matrix(0.6759561467745724, 0, 0, 0.6759561467745724, 514.5, 212.5)">
      <g stroke-linejoin="round" stroke-width="2" stroke-linecap="round" fill="none" stroke-opacity="0.3921568691730499" stroke="#999999">
        <path d="M -124.41234588623047 41.76614761352539 C -129.9126739501953 19.227182388305664 -136.43321228027344 -6.269898891448975 -140.82318115234375 -21.655874252319336"/>
      </g>
    </g>
    <g transform="matrix(0.3205103677024996, 1.313369694200577, -1.313369694200577, 0.3205103677024996, 430.40271006355835, 240.73208420645662)">
      <g fill-opacity="0.3921568691730499" fill-rule="nonzero" stroke="none" fill="#999999">
        <path d="M -0.00000000000000009185 0.5 C 0.27614237491539656 0.5 0.49999999999999994 0.2761423749153968 0.5 0.00000000000000012246 C 0.5000000000000001 -0.27614237491539656 0.27614237491539684 -0.4999999999999999 0.00000000000000015308 -0.5 z"/>
      </g>
    </g>
    <g transform="matrix(-1.4837099405135095, -5.200122537364899, 5.200122537364899, -1.4837099405135095, 416.3422889627714, 187.4613330991021)">
      <g fill-opacity="0.3921568691730499" fill-rule="nonzero" stroke="none" fill="#999999">
        <path d="M -2 -0.5 Q -1 0 0 0 Q -1 0 -2 0.5 z"/>
      </g>
    </g>
    <g transform="matrix(0.6759561467745724, 0, 0, 0.6759561467745724, 514.5, 212.5)">
      <g stroke-dasharray="8,4" stroke-width="2" stroke-linecap="butt" fill="none" stroke-opacity="0.3921568691730499" stroke="#999999">
        <path d="M -123.08148193359375 71.17251586914062 C -128.62310791015625 108.11296844482422 -130.8458251953125 157.74359130859375 -128.04603576660156 182.02561950683594"/>
      </g>
    </g>
    <g transform="matrix(0.2005632223700968, -1.3369522217647989, 1.3369522217647989, 0.2005632223700968, 431.3023157328638, 260.6094995831564)">
      <g fill-opacity="0.3921568691730499" fill-rule="nonzero" stroke="none" fill="#999999">
        <path d="M -0.00000000000000009185 0.5 C 0.27614237491539656 0.5 0.49999999999999994 0.2761423749153968 0.5 0.00000000000000012246 C 0.5000000000000001 -0.27614237491539656 0.27614237491539684 -0.4999999999999999 0.00000000000000015308 -0.5 z"/>
      </g>
    </g>
    <g transform="matrix(0.6194131737997635, 5.372057046542996, -5.372057046542996, 0.6194131737997635, 429.18532166594895, 346.2854456173559)">
      <g fill-opacity="0.3921568691730499" fill-rule="nonzero" stroke="none" fill="#999999">
        <path d="M -2 -0.5 Q -1 0 0 0 Q -1 0 -2 0.5 z"/>
      </g>
    </g>
    <g transform="matrix(0.6759561467745724, 0, 0, 0.6759561467745724, 514.5, 212.5)">
      <g stroke-dasharray="8,4" stroke-width="2" stroke-linecap="butt" fill="none" stroke-opacity="0.3921568691730499" stroke="#999999">
        <path d="M -145.52056884765625 -36.9576530456543 C -139.58314514160156 -14.336888313293457 -132.93150329589844 10.916191101074219 -128.82073974609375 26.379104614257812"/>
      </g>
    </g>
    <g transform="matrix(-0.3432194894881174, -1.3076189167662056, 1.3076189167662056, -0.3432194894881174, 416.1344770052944, 187.51824725342797)">
      <g fill-opacity="0.3921568691730499" fill-rule="nonzero" stroke="none" fill="#999999">
        <path d="M -0.00000000000000009185 0.5 C 0.27614237491539656 0.5 0.49999999999999994 0.2761423749153968 0.5 0.00000000000000012246 C 0.5000000000000001 -0.27614237491539656 0.27614237491539684 -0.4999999999999999 0.00000000000000015308 -0.5 z"/>
      </g>
    </g>
    <g transform="matrix(1.3893448776146766, 5.226125754536988, -5.226125754536988, 1.3893448776146766, 430.2015147117355, 240.7833693466971)">
      <g fill-opacity="0.3921568691730499" fill-rule="nonzero" stroke="none" fill="#999999">
        <path d="M -2 -0.5 Q -1 0 0 0 Q -1 0 -2 0.5 z"/>
      </g>
    </g>
    <g transform="matrix(0.6759561467745724, 0, 0, 0.6759561467745724, 514.5, 212.5)">
      <g stroke-linejoin="round" stroke-width="2" stroke-linecap="round" fill="none" stroke-opacity="0.3921568691730499" stroke="#999999">
        <path d="M -145.7851104736328 -36.890785217285156 C -140.62962341308594 -15.685516357421875 -133.712646484375 11.131084442138672 -129.33596801757812 26.520843505859375"/>
      </g>
    </g>
    <g transform="matrix(-0.3193775018864397, -1.3136456374297012, 1.3136456374297012, -0.3193775018864397, 415.9556584671378, 187.56344697303558)">
      <g fill-opacity="0.3921568691730499" fill-rule="nonzero" stroke="none" fill="#999999">
        <path d="M -0.00000000000000009185 0.5 C 0.27614237491539656 0.5 0.49999999999999994 0.2761423749153968 0.5 0.00000000000000012246 C 0.5000000000000001 -0.27614237491539656 0.27614237491539684 -0.4999999999999999 0.00000000000000015308 -0.5 z"/>
      </g>
    </g>
    <g transform="matrix(1.4792215428498217, 5.201401082242931, -5.201401082242931, 1.4792215428498217, 430.0330001315658, 240.82972942193385)">
      <g fill-opacity="0.3921568691730499" fill-rule="nonzero" stroke="none" fill="#999999">
        <path d="M -2 -0.5 Q -1 0 0 0 Q -1 0 -2 0.5 z"/>
      </g>
    </g>
    <g transform="matrix(0.6759561467745724, 0, 0, 0.6759561467745724, 514.5, 212.5)">
      <g stroke-linejoin="round" stroke-width="2" stroke-linecap="round" fill="none" stroke-opacity="0.3921568691730499" stroke="#999999">
        <path d="M -145.7851104736328 -36.890785217285156 C -140.62962341308594 -15.685516357421875 -133.712646484375 11.131084442138672 -129.33596801757812 26.520843505859375"/>
      </g>
    </g>
    <g transform="matrix(-0.3193775018864397, -1.3136456374297012, 1.3136456374297012, -0.3193775018864397, 415.9556584671378, 187.56344697303558)">
      <g fill-opacity="0.3921568691730499" fill-rule="nonzero" stroke="none" fill="#999999">
        <path d="M -0.00000000000000009185 0.5 C 0.27614237491539656 0.5 0.49999999999999994 0.2761423749153968 0.5 0.00000000000000012246 C 0.5000000000000001 -0.27614237491539656 0.27614237491539684 -0.4999999999999999 0.00000000000000015308 -0.5 z"/>
      </g>
    </g>
    <g transform="matrix(1.4792215428498217, 5.201401082242931, -5.201401082242931, 1.4792215428498217, 430.0330001315658, 240.82972942193385)">
      <g fill-opacity="0.3921568691730499" fill-rule="nonzero" stroke="none" fill="#999999">
        <path d="M -2 -0.5 Q -1 0 0 0 Q -1 0 -2 0.5 z"/>
      </g>
    </g>
    <g transform="matrix(0.6759561467745724, 0, 0, 0.6759561467745724, 514.5, 212.5)">
      <g stroke-dasharray="8,4" stroke-width="2" stroke-linecap="butt" fill="none" stroke-opacity="0.3921568691730499" stroke="#999999">
        <path d="M -156.88206481933594 -38.50676345825195 C -167.78282165527344 -19.804059982299805 -175.01722717285156 -6.939380168914795 -184.17198181152344 6.182755470275879"/>
      </g>
    </g>
    <g transform="matrix(0.6807632282169167, -1.1680018307164552, 1.1680018307164552, 0.6807632282169167, 408.45460396668295, 186.4711165480001)">
      <g fill-opacity="0.3921568691730499" fill-rule="nonzero" stroke="none" fill="#999999">
        <path d="M -0.00000000000000009185 0.5 C 0.27614237491539656 0.5 0.49999999999999994 0.2761423749153968 0.5 0.00000000000000012246 C 0.5000000000000001 -0.27614237491539656 0.27614237491539684 -0.4999999999999999 0.00000000000000015308 -0.5 z"/>
      </g>
    </g>
    <g transform="matrix(-3.0941066207886974, 4.4349942289004725, -4.4349942289004725, -3.0941066207886974, 383.8196041606227, 225.54926013057872)">
      <g fill-opacity="0.3921568691730499" fill-rule="nonzero" stroke="none" fill="#999999">
        <path d="M -2 -0.5 Q -1 0 0 0 Q -1 0 -2 0.5 z"/>
      </g>
    </g>
    <g transform="matrix(0.6759561467745724, 0, 0, 0.6759561467745724, 514.5, 212.5)">
      <g stroke-dasharray="8,4" stroke-width="2" stroke-linecap="butt" fill="none" stroke-opacity="0.3921568691730499" stroke="#999999">
        <path d="M -156.88206481933594 -38.50676345825195 C -167.78282165527344 -19.804059982299805 -175.01722717285156 -6.939380168914795 -184.17198181152344 6.182755470275879"/>
      </g>
    </g>
    <g transform="matrix(0.6807632282169167, -1.1680018307164552, 1.1680018307164552, 0.6807632282169167, 408.45460396668295, 186.4711165480001)">
      <g fill-opacity="0.3921568691730499" fill-rule="nonzero" stroke="none" fill="#999999">
        <path d="M -0.00000000000000009185 0.5 C 0.27614237491539656 0.5 0.49999999999999994 0.2761423749153968 0.5 0.00000000000000012246 C 0.5000000000000001 -0.27614237491539656 0.27614237491539684 -0.4999999999999999 0.00000000000000015308 -0.5 z"/>
      </g>
    </g>
    <g transform="matrix(-3.0941066207886974, 4.4349942289004725, -4.4349942289004725, -3.0941066207886974, 383.8196041606227, 225.54926013057872)">
      <g fill-opacity="0.3921568691730499" fill-rule="nonzero" stroke="none" fill="#999999">
        <path d="M -2 -0.5 Q -1 0 0 0 Q -1 0 -2 0.5 z"/>
      </g>
    </g>
    <g transform="matrix(0.6759561467745724, 0, 0, 0.6759561467745724, 514.5, 212.5)">
      <g stroke-dasharray="8,4" stroke-width="2" stroke-linecap="butt" fill="none" stroke-opacity="0.3921568691730499" stroke="#999999">
        <path d="M -54.42384719848633 129.30645751953125 L -104.56979610272127 189.07333324470218"/>
      </g>
    </g>
    <g transform="matrix(0.868947581381492, -1.03566256582951, 1.03566256582951, 0.868947581381492, 477.7118659550631, 299.9054947779723)">
      <g fill-opacity="0.3921568691730499" fill-rule="nonzero" stroke="none" fill="#999999">
        <path d="M -0.00000000000000009185 0.5 C 0.27614237491539656 0.5 0.49999999999999994 0.2761423749153968 0.5 0.00000000000000012246 C 0.5000000000000001 -0.27614237491539656 0.27614237491539684 -0.4999999999999999 0.00000000000000015308 -0.5 z"/>
      </g>
    </g>
    <g transform="matrix(-3.475790325525968, 4.14265026331804, -4.14265026331804, -3.475790325525968, 436.8638229063499, 348.5905823245496)">
      <g fill-opacity="0.3921568691730499" fill-rule="nonzero" stroke="none" fill="#999999">
        <path d="M -2 -0.5 Q -1 0 0 0 Q -1 0 -2 0.5 z"/>
      </g>
    </g>
    <g transform="matrix(0.6759561467745724, 0, 0, 0.6759561467745724, 514.5, 212.5)">
      <g stroke-dasharray="8,4" stroke-width="2" stroke-linecap="butt" fill="none" stroke-opacity="0.3921568691730499" stroke="#999999">
        <path d="M -158.52557373046875 109.5151138305664 C -146.1973876953125 133.404296875 -133.6174774169922 166.03350830078125 -130.4275665283203 182.39450073242188"/>
      </g>
    </g>
    <g transform="matrix(-0.6199769368817517, -1.2013723183027105, 1.2013723183027105, -0.6199769368817517, 407.343664015924, 286.52741435848833)">
      <g fill-opacity="0.3921568691730499" fill-rule="nonzero" stroke="none" fill="#999999">
        <path d="M -0.00000000000000009185 0.5 C 0.27614237491539656 0.5 0.49999999999999994 0.2761423749153968 0.5 0.00000000000000012246 C 0.5000000000000001 -0.27614237491539656 0.27614237491539684 -0.4999999999999999 0.00000000000000015308 -0.5 z"/>
      </g>
    </g>
    <g transform="matrix(1.0348477820948536, 5.307707570984135, -5.307707570984135, 1.0348477820948536, 428.40638266780303, 346.40610197424326)">
      <g fill-opacity="0.3921568691730499" fill-rule="nonzero" stroke="none" fill="#999999">
        <path d="M -2 -0.5 Q -1 0 0 0 Q -1 0 -2 0.5 z"/>
      </g>
    </g>
    <g transform="matrix(0.6759561467745724, 0, 0, 0.6759561467745724, 514.5, 212.5)">
      <g stroke-dasharray="8,4" stroke-width="2" stroke-linecap="butt" fill="none" stroke-opacity="0.3921568691730499" stroke="#999999">
        <path d="M -145.5973358154297 -36.937721252441406 C -140.0825653076172 -15.465500831604004 -144.76707458496094 30.902076721191406 -156.0605010986328 66.62715911865234"/>
      </g>
    </g>
    <g transform="matrix(-0.336301033186739, -1.3094153139958464, 1.3094153139958464, -0.336301033186739, 416.0825859015587, 187.53172027156648)">
      <g fill-opacity="0.3921568691730499" fill-rule="nonzero" stroke="none" fill="#999999">
        <path d="M -0.00000000000000009185 0.5 C 0.27614237491539656 0.5 0.49999999999999994 0.2761423749153968 0.5 0.00000000000000012246 C 0.5000000000000001 -0.27614237491539656 0.27614237491539684 -0.4999999999999999 0.00000000000000015308 -0.5 z"/>
      </g>
    </g>
    <g transform="matrix(-1.629963543634695, 5.156150544506121, -5.156150544506121, -1.629963543634695, 405.7500161234375, 267.84933998151257)">
      <g fill-opacity="0.3921568691730499" fill-rule="nonzero" stroke="none" fill="#999999">
        <path d="M -2 -0.5 Q -1 0 0 0 Q -1 0 -2 0.5 z"/>
      </g>
    </g>
    <g transform="matrix(0.6759561467745724, 0, 0, 0.6759561467745724, 514.5, 212.5)">
      <g stroke-linejoin="round" stroke-width="2" stroke-linecap="round" fill="none" stroke-opacity="0.3921568691730499" stroke="#999999">
        <path d="M -192.057373046875 -128.82931518554688 C -184.1923065185547 -111.90007019042969 -173.80101013183594 -91.59233856201172 -165.4700164794922 -77.932373046875"/>
      </g>
    </g>
    <g transform="matrix(-0.5696070651794711, -1.226056540599551, 1.226056540599551, -0.5696070651794711, 384.6776381555878, 125.41703251557082)">
      <g fill-opacity="0.3921568691730499" fill-rule="nonzero" stroke="none" fill="#999999">
        <path d="M -0.00000000000000009185 0.5 C 0.27614237491539656 0.5 0.49999999999999994 0.2761423749153968 0.5 0.00000000000000012246 C 0.5000000000000001 -0.27614237491539656 0.27614237491539684 -0.4999999999999999 0.00000000000000015308 -0.5 z"/>
      </g>
    </g>
    <g transform="matrix(2.8156934411472467, 4.616767271226623, -4.616767271226623, 2.8156934411472467, 408.28091162183915, 169.05466590378506)">
      <g fill-opacity="0.3921568691730499" fill-rule="nonzero" stroke="none" fill="#999999">
        <path d="M -2 -0.5 Q -1 0 0 0 Q -1 0 -2 0.5 z"/>
      </g>
    </g>
    <g transform="matrix(0.6759561467745724, 0, 0, 0.6759561467745724, 514.5, 212.5)">
      <g stroke-linejoin="round" stroke-width="2" stroke-linecap="round" fill="none" stroke-opacity="0.3921568691730499" stroke="#999999">
        <path d="M -192.057373046875 -128.82931518554688 C -184.1923065185547 -111.90007019042969 -173.80101013183594 -91.59233856201172 -165.4700164794922 -77.932373046875"/>
      </g>
    </g>
    <g transform="matrix(-0.5696070651794711, -1.226056540599551, 1.226056540599551, -0.5696070651794711, 384.6776381555878, 125.41703251557082)">
      <g fill-opacity="0.3921568691730499" fill-rule="nonzero" stroke="none" fill="#999999">
        <path d="M -0.00000000000000009185 0.5 C 0.27614237491539656 0.5 0.49999999999999994 0.2761423749153968 0.5 0.00000000000000012246 C 0.5000000000000001 -0.27614237491539656 0.27614237491539684 -0.4999999999999999 0.00000000000000015308 -0.5 z"/>
      </g>
    </g>
    <g transform="matrix(2.8156934411472467, 4.616767271226623, -4.616767271226623, 2.8156934411472467, 408.28091162183915, 169.05466590378506)">
      <g fill-opacity="0.3921568691730499" fill-rule="nonzero" stroke="none" fill="#999999">
        <path d="M -2 -0.5 Q -1 0 0 0 Q -1 0 -2 0.5 z"/>
      </g>
    </g>
    <g transform="matrix(0.6759561467745724, 0, 0, 0.6759561467745724, 514.5, 212.5)">
      <g stroke-linejoin="round" stroke-width="2" stroke-linecap="round" fill="none" stroke-opacity="0.3921568691730499" stroke="#999999">
        <path d="M -192.057373046875 -128.82931518554688 C -184.1923065185547 -111.90007019042969 -173.80101013183594 -91.59233856201172 -165.4700164794922 -77.932373046875"/>
      </g>
    </g>
    <g transform="matrix(-0.5696070651794711, -1.226056540599551, 1.226056540599551, -0.5696070651794711, 384.6776381555878, 125.41703251557082)">
      <g fill-opacity="0.3921568691730499" fill-rule="nonzero" stroke="none" fill="#999999">
        <path d="M -0.00000000000000009185 0.5 C 0.27614237491539656 0.5 0.49999999999999994 0.2761423749153968 0.5 0.00000000000000012246 C 0.5000000000000001 -0.27614237491539656 0.27614237491539684 -0.4999999999999999 0.00000000000000015308 -0.5 z"/>
      </g>
    </g>
    <g transform="matrix(2.8156934411472467, 4.616767271226623, -4.616767271226623, 2.8156934411472467, 408.28091162183915, 169.05466590378506)">
      <g fill-opacity="0.3921568691730499" fill-rule="nonzero" stroke="none" fill="#999999">
        <path d="M -2 -0.5 Q -1 0 0 0 Q -1 0 -2 0.5 z"/>
      </g>
    </g>
    <g transform="matrix(0.6759561467745724, 0, 0, 0.6759561467745724, 514.5, 212.5)">
      <g stroke-linejoin="round" stroke-width="2" stroke-linecap="round" fill="none" stroke-opacity="0.3921568691730499" stroke="#999999">
        <path d="M -157.13902282714844 -64.27241516113281 C -168.55882263183594 -82.99695587158203 -178.57467651367188 -99.80834197998047 -185.31602478027344 -114.31883239746094"/>
      </g>
    </g>
    <g transform="matrix(0.7039233602868112, 1.1541918178066557, -1.1541918178066557, 0.7039233602868112, 408.28091162183915, 169.05466590378506)">
      <g fill-opacity="0.3921568691730499" fill-rule="nonzero" stroke="none" fill="#999999">
        <path d="M -0.00000000000000009185 0.5 C 0.27614237491539656 0.5 0.49999999999999994 0.2761423749153968 0.5 0.00000000000000012246 C 0.5000000000000001 -0.27614237491539656 0.27614237491539684 -0.4999999999999999 0.00000000000000015308 -0.5 z"/>
      </g>
    </g>
    <g transform="matrix(-2.2784282607178876, -4.904226162398203, 4.904226162398203, -2.2784282607178876, 384.6776381555878, 125.41703251557082)">
      <g fill-opacity="0.3921568691730499" fill-rule="nonzero" stroke="none" fill="#999999">
        <path d="M -2 -0.5 Q -1 0 0 0 Q -1 0 -2 0.5 z"/>
      </g>
    </g>
    <g transform="matrix(0.6759561467745724, 0, 0, 0.6759561467745724, 514.5, 212.5)">
      <g stroke-linejoin="round" stroke-width="2" stroke-linecap="round" fill="none" stroke-opacity="0.3921568691730499" stroke="#999999">
        <path d="M -157.13902282714844 -64.27241516113281 C -168.55882263183594 -82.99695587158203 -178.57467651367188 -99.80834197998047 -185.31602478027344 -114.31883239746094"/>
      </g>
    </g>
    <g transform="matrix(0.7039233602868112, 1.1541918178066557, -1.1541918178066557, 0.7039233602868112, 408.28091162183915, 169.05466590378506)">
      <g fill-opacity="0.3921568691730499" fill-rule="nonzero" stroke="none" fill="#999999">
        <path d="M -0.00000000000000009185 0.5 C 0.27614237491539656 0.5 0.49999999999999994 0.2761423749153968 0.5 0.00000000000000012246 C 0.5000000000000001 -0.27614237491539656 0.27614237491539684 -0.4999999999999999 0.00000000000000015308 -0.5 z"/>
      </g>
    </g>
    <g transform="matrix(-2.2784282607178876, -4.904226162398203, 4.904226162398203, -2.2784282607178876, 384.6776381555878, 125.41703251557082)">
      <g fill-opacity="0.3921568691730499" fill-rule="nonzero" stroke="none" fill="#999999">
        <path d="M -2 -0.5 Q -1 0 0 0 Q -1 0 -2 0.5 z"/>
      </g>
    </g>
    <g transform="matrix(0.6759561467745724, 0, 0, 0.6759561467745724, 514.5, 212.5)">
      <g stroke-linejoin="round" stroke-width="2" stroke-linecap="round" fill="none" stroke-opacity="0.3921568691730499" stroke="#999999">
        <path d="M -157.31040954589844 -64.16629791259766 C -169.29537963867188 -83.23622131347656 -179.3484649658203 -99.45732116699219 -185.82640075683594 -114.0873031616211"/>
      </g>
    </g>
    <g transform="matrix(0.7193702639556527, 1.1446280062909884, -1.1446280062909884, 0.7193702639556527, 408.16506171582455, 169.1263965102112)">
      <g fill-opacity="0.3921568691730499" fill-rule="nonzero" stroke="none" fill="#999999">
        <path d="M -0.00000000000000009185 0.5 C 0.27614237491539656 0.5 0.49999999999999994 0.2761423749153968 0.5 0.00000000000000012246 C 0.5000000000000001 -0.27614237491539656 0.27614237491539684 -0.4999999999999999 0.00000000000000015308 -0.5 z"/>
      </g>
    </g>
    <g transform="matrix(-2.1893996198253354, -4.9446131189303, 4.9446131189303, -2.1893996198253354, 384.5107016590737, 125.49275990249738)">
      <g fill-opacity="0.3921568691730499" fill-rule="nonzero" stroke="none" fill="#999999">
        <path d="M -2 -0.5 Q -1 0 0 0 Q -1 0 -2 0.5 z"/>
      </g>
    </g>
    <g transform="matrix(0.6759561467745724, 0, 0, 0.6759561467745724, 514.5, 212.5)">
      <g stroke-linejoin="round" stroke-width="2" stroke-linecap="round" fill="none" stroke-opacity="0.3921568691730499" stroke="#999999">
        <path d="M -54.34672927856445 -84.19610595703125 C -76.65912628173828 -76.50746154785156 -104.89295196533203 -66.77835083007812 -120.02001953125 -61.565704345703125"/>
      </g>
    </g>
    <g transform="matrix(1.2781546370560344, -0.44044020391134336, 0.44044020391134336, 1.2781546370560344, 477.7639942870607, 155.58712464386153)">
      <g fill-opacity="0.3921568691730499" fill-rule="nonzero" stroke="none" fill="#999999">
        <path d="M -0.00000000000000009185 0.5 C 0.27614237491539656 0.5 0.49999999999999994 0.2761423749153968 0.5 0.00000000000000012246 C 0.5000000000000001 -0.27614237491539656 0.27614237491539684 -0.4999999999999999 0.00000000000000015308 -0.5 z"/>
      </g>
    </g>
    <g transform="matrix(-5.112618804416894, 1.7617600721754678, -1.7617600721754678, -5.112618804416894, 423.1464906008547, 174.4078041490921)">
      <g fill-opacity="0.3921568691730499" fill-rule="nonzero" stroke="none" fill="#999999">
        <path d="M -2 -0.5 Q -1 0 0 0 Q -1 0 -2 0.5 z"/>
      </g>
    </g>
    <g transform="matrix(0.6759561467745724, 0, 0, 0.6759561467745724, 514.5, 212.5)">
      <g stroke-linejoin="round" stroke-width="2" stroke-linecap="round" fill="none" stroke-opacity="0.3921568691730499" stroke="#999999">
        <path d="M -54.34672927856445 -84.19610595703125 C -76.65912628173828 -76.50746154785156 -104.89295196533203 -66.77835083007812 -120.02001953125 -61.565704345703125"/>
      </g>
    </g>
    <g transform="matrix(1.2781546370560344, -0.44044020391134336, 0.44044020391134336, 1.2781546370560344, 477.7639942870607, 155.58712464386153)">
      <g fill-opacity="0.3921568691730499" fill-rule="nonzero" stroke="none" fill="#999999">
        <path d="M -0.00000000000000009185 0.5 C 0.27614237491539656 0.5 0.49999999999999994 0.2761423749153968 0.5 0.00000000000000012246 C 0.5000000000000001 -0.27614237491539656 0.27614237491539684 -0.4999999999999999 0.00000000000000015308 -0.5 z"/>
      </g>
    </g>
    <g transform="matrix(-5.112618804416894, 1.7617600721754678, -1.7617600721754678, -5.112618804416894, 423.1464906008547, 174.4078041490921)">
      <g fill-opacity="0.3921568691730499" fill-rule="nonzero" stroke="none" fill="#999999">
        <path d="M -2 -0.5 Q -1 0 0 0 Q -1 0 -2 0.5 z"/>
      </g>
    </g>
    <g transform="matrix(0.6759561467745724, 0, 0, 0.6759561467745724, 514.5, 212.5)">
      <g stroke-linejoin="round" stroke-width="2" stroke-linecap="round" fill="none" stroke-opacity="0.3921568691730499" stroke="#999999">
        <path d="M -135.1470947265625 -56.353057861328125 C -112.83468627929688 -64.04170227050781 -84.60087585449219 -73.77081298828125 -69.47380065917969 -78.98345947265625"/>
      </g>
    </g>
    <g transform="matrix(-1.2781547011042238, 0.4404400180438665, -0.4404400180438665, -1.2781547011042238, 423.1464906008547, 174.4078041490921)">
      <g fill-opacity="0.3921568691730499" fill-rule="nonzero" stroke="none" fill="#999999">
        <path d="M -0.00000000000000009185 0.5 C 0.27614237491539656 0.5 0.49999999999999994 0.2761423749153968 0.5 0.00000000000000012246 C 0.5000000000000001 -0.27614237491539656 0.27614237491539684 -0.4999999999999999 0.00000000000000015308 -0.5 z"/>
      </g>
    </g>
    <g transform="matrix(5.112618548224137, -1.7617608156453766, 1.7617608156453766, 5.112618548224137, 477.7639942870607, 155.58712464386153)">
      <g fill-opacity="0.3921568691730499" fill-rule="nonzero" stroke="none" fill="#999999">
        <path d="M -2 -0.5 Q -1 0 0 0 Q -1 0 -2 0.5 z"/>
      </g>
    </g>
    <g transform="matrix(0.6759561467745724, 0, 0, 0.6759561467745724, 514.5, 212.5)">
      <g stroke-linejoin="round" stroke-width="2" stroke-linecap="round" fill="none" stroke-opacity="0.3921568691730499" stroke="#999999">
        <path d="M -135.1470947265625 -56.353057861328125 C -112.83468627929688 -64.04170227050781 -84.60087585449219 -73.77081298828125 -69.47380065917969 -78.98345947265625"/>
        <path d="M -258.437 269.918 C -220.027 270.101 -189.495 269.249 -143.323 269.521"/>
      </g>
    </g>
    <g transform="matrix(-1.2781547011042238, 0.4404400180438665, -0.4404400180438665, -1.2781547011042238, 423.1464906008547, 174.4078041490921)">
      <g fill-opacity="0.3921568691730499" fill-rule="nonzero" stroke="none" fill="#999999">
        <path d="M -0.00000000000000009185 0.5 C 0.27614237491539656 0.5 0.49999999999999994 0.2761423749153968 0.5 0.00000000000000012246 C 0.5000000000000001 -0.27614237491539656 0.27614237491539684 -0.4999999999999999 0.00000000000000015308 -0.5 z"/>
      </g>
    </g>
    <g transform="matrix(5.112618548224137, -1.7617608156453766, 1.7617608156453766, 5.112618548224137, 477.7639942870607, 155.58712464386153)">
      <g fill-opacity="0.3921568691730499" fill-rule="nonzero" stroke="none" fill="#999999">
        <path d="M -2 -0.5 Q -1 0 0 0 Q -1 0 -2 0.5 z"/>
      </g>
    </g>
    <g transform="matrix(0.6759561467745724, 0, 0, 0.6759561467745724, 514.5, 212.5)">
      <g stroke-linejoin="round" stroke-width="2" stroke-linecap="round" fill="none" stroke-opacity="0.3921568691730499" stroke="#999999">
        <path d="M -101.04217529296875 -135.0418701171875 C -113.68989562988281 -110.99842834472656 -124.16259002685547 -91.16085815429688 -132.7297821044922 -77.64778137207031"/>
      </g>
    </g>
    <g transform="matrix(0.6293864280163126, -1.1964696292335113, 1.1964696292335113, 0.6293864280163126, 446.19992052724393, 121.21761782235366)">
      <g fill-opacity="0.3921568691730499" fill-rule="nonzero" stroke="none" fill="#999999">
        <path d="M -0.00000000000000009185 0.5 C 0.27614237491539656 0.5 0.49999999999999994 0.2761423749153968 0.5 0.00000000000000012246 C 0.5000000000000001 -0.27614237491539656 0.27614237491539684 -0.4999999999999999 0.00000000000000015308 -0.5 z"/>
      </g>
    </g>
    <g transform="matrix(-2.8955247094604606, 4.567122315867275, -4.567122315867275, -2.8955247094604606, 418.9894366238058, 169.1477470537876)">
      <g fill-opacity="0.3921568691730499" fill-rule="nonzero" stroke="none" fill="#999999">
        <path d="M -2 -0.5 Q -1 0 0 0 Q -1 0 -2 0.5 z"/>
      </g>
    </g>
    <g transform="matrix(0.6759561467745724, 0, 0, 0.6759561467745724, 514.5, 212.5)">
      <g stroke-linejoin="round" stroke-width="2" stroke-linecap="round" fill="none" stroke-opacity="0.3921568691730499" stroke="#999999">
        <path d="M -141.29698181152344 -64.13471221923828 C -131.71258544921875 -79.25221252441406 -117.02485656738281 -104.65863800048828 -108.49102020263672 -120.88154602050781"/>
      </g>
    </g>
    <g transform="matrix(-0.7238811773651155, 1.1417805789668187, -1.1417805789668187, -0.7238811773651155, 418.9894366238058, 169.1477470537876)">
      <g fill-opacity="0.3921568691730499" fill-rule="nonzero" stroke="none" fill="#999999">
        <path d="M -0.00000000000000009185 0.5 C 0.27614237491539656 0.5 0.49999999999999994 0.2761423749153968 0.5 0.00000000000000012246 C 0.5000000000000001 -0.27614237491539656 0.27614237491539684 -0.4999999999999999 0.00000000000000015308 -0.5 z"/>
      </g>
    </g>
    <g transform="matrix(2.51754571206525, -4.785878516934045, 4.785878516934045, 2.51754571206525, 446.19992052724393, 121.21761782235366)">
      <g fill-opacity="0.3921568691730499" fill-rule="nonzero" stroke="none" fill="#999999">
        <path d="M -2 -0.5 Q -1 0 0 0 Q -1 0 -2 0.5 z"/>
      </g>
    </g>
    <g transform="matrix(0.6759561467745724, 0, 0, 0.6759561467745724, 514.5, 212.5)">
      <g stroke-dasharray="8,4" stroke-width="2" stroke-linecap="butt" fill="none" stroke-opacity="0.3921568691730499" stroke="#999999">
        <path d="M -164.30340576171875 -52.337223052978516 C -188.19683837890625 -53.727012634277344 -230.29986572265625 -55.61507034301758 -258.3431396484375 -56.554317474365234"/>
      </g>
    </g>
    <g transform="matrix(1.3496311144035165, 0.07850289474427476, -0.07850289474427476, 1.3496311144035165, 403.4381029393695, 177.12233237222733)">
      <g fill-opacity="0.3921568691730499" fill-rule="nonzero" stroke="none" fill="#999999">
        <path d="M -0.00000000000000009185 0.5 C 0.27614237491539656 0.5 0.49999999999999994 0.2761423749153968 0.5 0.00000000000000012246 C 0.5000000000000001 -0.27614237491539656 0.27614237491539684 -0.4999999999999999 0.00000000000000015308 -0.5 z"/>
      </g>
    </g>
    <g transform="matrix(-5.404618667321519, -0.1810156126656113, 0.1810156126656113, -5.404618667321519, 329.06213322129213, 173.90973052026663)">
      <g fill-opacity="0.3921568691730499" fill-rule="nonzero" stroke="none" fill="#999999">
        <path d="M -2 -0.5 Q -1 0 0 0 Q -1 0 -2 0.5 z"/>
      </g>
    </g>
    <g transform="matrix(0.6759561467745724, 0, 0, 0.6759561467745724, 514.5, 212.5)">
      <g stroke-dasharray="8,4" stroke-width="2" stroke-linecap="butt" fill="none" stroke-opacity="0.3921568691730499" stroke="#999999">
        <path d="M -157.11306762695312 -64.2882080078125 C -168.44984436035156 -82.96160888671875 -171.62860107421875 -128.5673370361328 -164.2130126953125 -166.15145874023438"/>
      </g>
    </g>
    <g transform="matrix(0.701583768722671, 1.1556154485442824, -1.1556154485442824, 0.701583768722671, 408.29845619895195, 169.04399063199685)">
      <g fill-opacity="0.3921568691730499" fill-rule="nonzero" stroke="none" fill="#999999">
        <path d="M -0.00000000000000009185 0.5 C 0.27614237491539656 0.5 0.49999999999999994 0.2761423749153968 0.5 0.00000000000000012246 C 0.5000000000000001 -0.27614237491539656 0.27614237491539684 -0.4999999999999999 0.00000000000000015308 -0.5 z"/>
      </g>
    </g>
    <g transform="matrix(1.0467832620183075, -5.305366565426677, 5.305366565426677, 1.0467832620183075, 405.59277504284705, 89.57816478229905)">
      <g fill-opacity="0.3921568691730499" fill-rule="nonzero" stroke="none" fill="#999999">
        <path d="M -2 -0.5 Q -1 0 0 0 Q -1 0 -2 0.5 z"/>
      </g>
    </g>
    <g transform="matrix(0.6759561467745724, 0, 0, 0.6759561467745724, 514.5, 212.5)">
      <g stroke-linejoin="round" stroke-width="2" stroke-linecap="round" fill="none" stroke-opacity="0.3921568691730499" stroke="#999999">
        <path d="M -158.96109008789062 -62.96479034423828 C -175.9333953857422 -83.22539520263672 -213.86532592773438 -100.65953826904297 -243.68443298339844 -101.90504455566406"/>
      </g>
    </g>
    <g transform="matrix(0.8681407266752992, 1.0363390025165475, -1.0363390025165475, 0.8681407266752992, 407.0492740571038, 169.9385629364399)">
      <g fill-opacity="0.3921568691730499" fill-rule="nonzero" stroke="none" fill="#999999">
        <path d="M -0.00000000000000009185 0.5 C 0.27614237491539656 0.5 0.49999999999999994 0.2761423749153968 0.5 0.00000000000000012246 C 0.5000000000000001 -0.27614237491539656 0.27614237491539684 -0.4999999999999999 0.00000000000000015308 -0.5 z"/>
      </g>
    </g>
    <g transform="matrix(-5.402938178273669, -0.2256737311734518, 0.2256737311734518, -5.402938178273669, 338.9741282337749, 143.16531134833866)">
      <g fill-opacity="0.3921568691730499" fill-rule="nonzero" stroke="none" fill="#999999">
        <path d="M -2 -0.5 Q -1 0 0 0 Q -1 0 -2 0.5 z"/>
      </g>
    </g>
    <g transform="matrix(0.6759561467745724, 0, 0, 0.6759561467745724, 514.5, 212.5)">
      <g stroke-dasharray="8,4" stroke-width="2" stroke-linecap="butt" fill="none" stroke-opacity="0.3921568691730499" stroke="#999999">
        <path d="M -4.612401485443115 -149.91102600097656 C -41.14988327026367 -125.05601501464844 -94.4659194946289 -88.7872085571289 -123.69711303710938 -68.90238189697266"/>
      </g>
    </g>
    <g transform="matrix(1.1177966335666958, -0.7603930138002786, 0.7603930138002786, 1.1177966335666958, 511.38221886452254, 111.16672050535715)">
      <g fill-opacity="0.3921568691730499" fill-rule="nonzero" stroke="none" fill="#999999">
        <path d="M -0.00000000000000009185 0.5 C 0.27614237491539656 0.5 0.49999999999999994 0.2761423749153968 0.5 0.00000000000000012246 C 0.5000000000000001 -0.27614237491539656 0.27614237491539684 -0.4999999999999999 0.00000000000000015308 -0.5 z"/>
      </g>
    </g>
    <g transform="matrix(-4.47118628672082, 3.041572419099803, -3.041572419099803, -4.47118628672082, 421.9438051983507, 172.00815518661986)">
      <g fill-opacity="0.3921568691730499" fill-rule="nonzero" stroke="none" fill="#999999">
        <path d="M -2 -0.5 Q -1 0 0 0 Q -1 0 -2 0.5 z"/>
      </g>
    </g>
    <g transform="matrix(0.6759561467745724, 0, 0, 0.6759561467745724, 514.5, 212.5)">
      <g stroke-linejoin="round" stroke-width="2" stroke-linecap="round" fill="none" stroke-opacity="0.3921568691730499" stroke="#999999">
        <path d="M -259.6705017089844 -102.57276153564453 C -221.02252197265625 -100.95848846435547 -180.533447265625 -88.71669006347656 -169.23561096191406 -75.22994995117188"/>
      </g>
    </g>
    <g transform="matrix(-1.3507345445684174, -0.05641843279336305, 0.05641843279336305, -1.3507345445684174, 338.9741282337749, 143.16531134833866)">
      <g fill-opacity="0.3921568691730499" fill-rule="nonzero" stroke="none" fill="#999999">
        <path d="M -0.00000000000000009185 0.5 C 0.27614237491539656 0.5 0.49999999999999994 0.2761423749153968 0.5 0.00000000000000012246 C 0.5000000000000001 -0.27614237491539656 0.27614237491539684 -0.4999999999999999 0.00000000000000015308 -0.5 z"/>
      </g>
    </g>
    <g transform="matrix(3.4725629067011954, 4.14535601006619, -4.14535601006619, 3.4725629067011954, 407.0492740571038, 169.9385629364399)">
      <g fill-opacity="0.3921568691730499" fill-rule="nonzero" stroke="none" fill="#999999">
        <path d="M -2 -0.5 Q -1 0 0 0 Q -1 0 -2 0.5 z"/>
      </g>
    </g>
    <g transform="matrix(0.6759561467745724, 0, 0, 0.6759561467745724, 514.5, 212.5)">
      <g fill-opacity="1" fill-rule="nonzero" stroke="none" fill="#cccccc">
        <path d="M -34.81346130371094 32.90108108520508 C -34.81346130371094 41.18535233266698 -41.529190056249035 47.90108108520508 -49.81346130371094 47.90108108520508 C -58.09773255117284 47.90108108520508 -64.81346130371094 41.18535233266698 -64.81346130371094 32.90108108520508 C -64.81346130371094 24.616809837743176 -58.09773255117284 17.901081085205078 -49.81346130371094 17.901081085205078 C -41.529190056249035 17.901081085205078 -34.81346130371094 24.616809837743176 -34.81346130371094 32.90108108520508 z"/>
      </g>
    </g>
    <g transform="matrix(0.6759561467745724, 0, 0, 0.6759561467745724, 459.0042747094497, 238.31618252947203)">
      <text fill-opacity="1" font-style="normal" font-family="Helvetica" font-weight="normal" stroke="none" fill="#000000" font-size="14" x="0" y="0" style="white-space: pre;">Ibn Habal</text>
    </g>
    <g transform="matrix(0.6759561467745724, 0, 0, 0.6759561467745724, 514.5, 212.5)">
      <g fill-opacity="1" fill-rule="nonzero" stroke="none" fill="#cccccc">
        <path d="M -261.3504333496094 36.8669319152832 C -261.3504333496094 45.151203162745105 -268.0661621021475 51.8669319152832 -276.3504333496094 51.8669319152832 C -284.6347045970713 51.8669319152832 -291.3504333496094 45.151203162745105 -291.3504333496094 36.8669319152832 C -291.3504333496094 28.5826606678213 -284.6347045970713 21.866931915283203 -276.3504333496094 21.866931915283203 C -268.0661621021475 21.866931915283203 -261.3504333496094 28.5826606678213 -261.3504333496094 36.8669319152832 z"/>
      </g>
    </g>
    <g transform="matrix(0.6759561467745724, 0, 0, 0.6759561467745724, 314.726346836867, 240.9969237752544)">
      <text fill-opacity="1" font-style="normal" font-family="Helvetica" font-weight="normal" stroke="none" fill="#000000" font-size="14" x="0" y="0" style="white-space: pre;">Yūsuf</text>
    </g>
    <g transform="matrix(0.6759561467745724, 0, 0, 0.6759561467745724, 514.5, 212.5)">
      <g fill-opacity="1" fill-rule="nonzero" stroke="none" fill="#cccccc">
        <path d="M -228.48440551757812 143.5753936767578 C -228.48440551757812 151.85966492421971 -235.20013427011622 158.5753936767578 -243.48440551757812 158.5753936767578 C -251.76867676504003 158.5753936767578 -258.4844055175781 151.85966492421971 -258.4844055175781 143.5753936767578 C -258.4844055175781 135.2911224292959 -251.76867676504003 128.5753936767578 -243.48440551757812 128.5753936767578 C -235.20013427011622 128.5753936767578 -228.48440551757812 135.2911224292959 -228.48440551757812 143.5753936767578 z"/>
      </g>
    </g>
    <g transform="matrix(0.6759561467745724, 0, 0, 0.6759561467745724, 321.2108472920062, 313.12716441578254)">
      <text fill-opacity="1" font-style="normal" font-family="Helvetica" font-weight="normal" stroke="none" fill="#000000" font-size="14" x="0" y="0" style="white-space: pre;">ʿAbd al-Laṭīf</text>
    </g>
    <g transform="matrix(0.6759561467745724, 0, 0, 0.6759561467745724, 514.5, 212.5)">
      <g fill-opacity="1" fill-rule="nonzero" stroke="none" fill="#cccccc">
        <path d="M -105.85615539550781 56.3385009765625 C -105.85615539550781 64.6227722240244 -112.57188414804591 71.3385009765625 -120.85615539550781 71.3385009765625 C -129.14042664296971 71.3385009765625 -135.8561553955078 64.6227722240244 -135.8561553955078 56.3385009765625 C -135.8561553955078 48.0542297291006 -129.14042664296971 41.3385009765625 -120.85615539550781 41.3385009765625 C -112.57188414804591 41.3385009765625 -105.85615539550781 48.0542297291006 -105.85615539550781 56.3385009765625 z"/>
      </g>
    </g>
    <g transform="matrix(0.6759561467745724, 0, 0, 0.6759561467745724, 398.7397353256168, 254.1588505695717)">
      <text fill-opacity="1" font-style="normal" font-family="Helvetica" font-weight="normal" stroke="none" fill="#000000" font-size="14" x="0" y="0" style="white-space: pre;">Ibn Abī al-Sahl</text>
    </g>
    <g transform="matrix(0.6759561467745724, 0, 0, 0.6759561467745724, 514.5, 212.5)">
      <g fill-opacity="1" fill-rule="nonzero" stroke="none" fill="#cccccc">
        <path d="M -186.90931701660156 31.606895446777344 C -186.90931701660156 39.891166694239246 -193.62504576913966 46.606895446777344 -201.90931701660156 46.606895446777344 C -210.19358826406346 46.606895446777344 -216.90931701660156 39.891166694239246 -216.90931701660156 31.606895446777344 C -216.90931701660156 23.32262419931544 -210.19358826406346 16.606895446777344 -201.90931701660156 16.606895446777344 C -193.62504576913966 16.606895446777344 -186.90931701660156 23.32262419931544 -186.90931701660156 31.606895446777344 z"/>
      </g>
    </g>
    <g transform="matrix(0.6759561467745724, 0, 0, 0.6759561467745724, 344.94482321632535, 237.44136979210944)">
      <text fill-opacity="1" font-style="normal" font-family="Helvetica" font-weight="normal" stroke="none" fill="#000000" font-size="14" x="0" y="0" style="white-space: pre;">Ibn al-Dahhān</text>
    </g>
    <g transform="matrix(0.6759561467745724, 0, 0, 0.6759561467745724, 514.5, 212.5)">
      <g fill-opacity="1" fill-rule="nonzero" stroke="none" fill="#cccccc">
        <path d="M -29.78253173828125 117.81536865234375 C -29.78253173828125 126.09963989980565 -36.49826049081935 132.81536865234375 -44.78253173828125 132.81536865234375 C -53.06680298574315 132.81536865234375 -59.78253173828125 126.09963989980565 -59.78253173828125 117.81536865234375 C -59.78253173828125 109.53109740488185 -53.06680298574315 102.81536865234375 -44.78253173828125 102.81536865234375 C -36.49826049081935 102.81536865234375 -29.78253173828125 109.53109740488185 -29.78253173828125 117.81536865234375 z"/>
      </g>
    </g>
    <g transform="matrix(0.6759561467745724, 0, 0, 0.6759561467745724, 458.79150158701606, 295.71451715946307)">
      <text fill-opacity="1" font-style="normal" font-family="Helvetica" font-weight="normal" stroke="none" fill="#000000" font-size="14" x="0" y="0" style="white-space: pre;">Abū al-ʿIzz</text>
    </g>
    <g transform="matrix(0.6759561467745724, 0, 0, 0.6759561467745724, 514.5, 212.5)">
      <g fill-opacity="1" fill-rule="nonzero" stroke="none" fill="#cccccc">
        <path d="M -150.4044647216797 96.18541717529297 C -150.4044647216797 104.46968842275487 -157.12019347421779 111.18541717529297 -165.4044647216797 111.18541717529297 C -173.6887359691416 111.18541717529297 -180.4044647216797 104.46968842275487 -180.4044647216797 96.18541717529297 C -180.4044647216797 87.90114592783107 -173.6887359691416 81.18541717529297 -165.4044647216797 81.18541717529297 C -157.12019347421779 81.18541717529297 -150.4044647216797 87.90114592783107 -150.4044647216797 96.18541717529297 z"/>
      </g>
    </g>
    <g transform="matrix(0.6759561467745724, 0, 0, 0.6759561467745724, 369.8076446680453, 281.0936185041149)">
      <text fill-opacity="1" font-style="normal" font-family="Helvetica" font-weight="normal" stroke="none" fill="#000000" font-size="14" x="0" y="0" style="white-space: pre;">Ibn al-Kuraydī</text>
    </g>
    <g transform="matrix(0.6759561467745724, 0, 0, 0.6759561467745724, 514.5, 212.5)">
      <g fill-opacity="1" fill-rule="nonzero" stroke="none" fill="#cccccc">
        <path d="M -109.49517822265625 212.8215789794922 C -109.49517822265625 221.1058502269541 -116.21090697519435 227.8215789794922 -124.49517822265625 227.8215789794922 C -132.77944947011815 227.8215789794922 -139.49517822265625 221.1058502269541 -139.49517822265625 212.8215789794922 C -139.49517822265625 204.53730773203029 -132.77944947011815 197.8215789794922 -124.49517822265625 197.8215789794922 C -116.21090697519435 197.8215789794922 -109.49517822265625 204.53730773203029 -109.49517822265625 212.8215789794922 z"/>
      </g>
    </g>
    <g transform="matrix(0.6759561467745724, 0, 0, 0.6759561467745724, 392.22285836985617, 359.9345490118569)">
      <text fill-opacity="1" font-style="normal" font-family="Helvetica" font-weight="normal" stroke="none" fill="#000000" font-size="14" x="0" y="0" style="white-space: pre;">Ibn Abī ʾUṣaybiʿa</text>
    </g>
    <g transform="matrix(0.6759561467745724, 0, 0, 0.6759561467745724, 514.5, 212.5)">
      <g fill-opacity="1" fill-rule="nonzero" stroke="none" fill="#cccccc">
        <path d="M -183.3773956298828 -142.43289184570312 C -183.3773956298828 -134.14862059824122 -190.0931243824209 -127.43289184570312 -198.3773956298828 -127.43289184570312 C -206.66166687734471 -127.43289184570312 -213.3773956298828 -134.14862059824122 -213.3773956298828 -142.43289184570312 C -213.3773956298828 -150.71716309316503 -206.66166687734471 -157.43289184570312 -198.3773956298828 -157.43289184570312 C -190.0931243824209 -157.43289184570312 -183.3773956298828 -150.71716309316503 -183.3773956298828 -142.43289184570312 z"/>
      </g>
    </g>
    <g transform="matrix(0.6759561467745724, 0, 0, 0.6759561467745724, 347.4847333886815, 119.79810578841817)">
      <text fill-opacity="1" font-style="normal" font-family="Helvetica" font-weight="normal" stroke="none" fill="#000000" font-size="14" x="0" y="0" style="white-space: pre;">Ibn al-Tilmīdh</text>
    </g>
    <g transform="matrix(0.6759561467745724, 0, 0, 0.6759561467745724, 514.5, 212.5)">
      <g fill-opacity="1" fill-rule="nonzero" stroke="none" fill="#cccccc">
        <path d="M -25.16510009765625 -89.08296203613281 C -25.16510009765625 -80.79869078867091 -31.88082885019435 -74.08296203613281 -40.16510009765625 -74.08296203613281 C -48.44937134511815 -74.08296203613281 -55.16510009765625 -80.79869078867091 -55.16510009765625 -89.08296203613281 C -55.16510009765625 -97.36723328359471 -48.44937134511815 -104.08296203613281 -40.16510009765625 -104.08296203613281 C -31.88082885019435 -104.08296203613281 -25.16510009765625 -97.36723328359471 -25.16510009765625 -89.08296203613281 z"/>
      </g>
    </g>
    <g transform="matrix(0.6759561467745724, 0, 0, 0.6759561467745724, 437.32081736733534, 155.8603187731892)">
      <text fill-opacity="1" font-style="normal" font-family="Helvetica" font-weight="normal" stroke="none" fill="#000000" font-size="14" x="0" y="0" style="white-space: pre;">Al-Mustanjid bi-Allāh</text>
    </g>
    <g transform="matrix(0.6759561467745724, 0, 0, 0.6759561467745724, 514.5, 212.5)">
      <g fill-opacity="1" fill-rule="nonzero" stroke="none" fill="#cccccc">
        <path d="M -79.05888366699219 -148.31716918945312 C -79.05888366699219 -140.03289794199122 -85.77461241953029 -133.31716918945312 -94.05888366699219 -133.31716918945312 C -102.34315491445409 -133.31716918945312 -109.05888366699219 -140.03289794199122 -109.05888366699219 -148.31716918945312 C -109.05888366699219 -156.60144043691503 -102.34315491445409 -163.31716918945312 -94.05888366699219 -163.31716918945312 C -85.77461241953029 -163.31716918945312 -79.05888366699219 -156.60144043691503 -79.05888366699219 -148.31716918945312 z"/>
      </g>
    </g>
    <g transform="matrix(0.6759561467745724, 0, 0, 0.6759561467745724, 422.4516077644846, 115.820592348584)">
      <text fill-opacity="1" font-style="normal" font-family="Helvetica" font-weight="normal" stroke="none" fill="#000000" font-size="14" x="0" y="0" style="white-space: pre;">Chief Justice</text>
    </g>
    <g transform="matrix(0.6759561467745724, 0, 0, 0.6759561467745724, 514.5, 212.5)">
      <g fill-opacity="1" fill-rule="nonzero" stroke="none" fill="#cccccc">
        <path d="M -274.3257751464844 -57.592010498046875 C -274.3257751464844 -49.30773925058497 -281.0415038990225 -42.592010498046875 -289.3257751464844 -42.592010498046875 C -297.6100463939463 -42.592010498046875 -304.3257751464844 -49.30773925058497 -304.3257751464844 -57.592010498046875 C -304.3257751464844 -65.87628174550878 -297.6100463939463 -72.59201049804688 -289.3257751464844 -72.59201049804688 C -281.0415038990225 -72.59201049804688 -274.3257751464844 -65.87628174550878 -274.3257751464844 -57.592010498046875 z"/>
      </g>
    </g>
    <g transform="matrix(0.6759561467745724, 0, 0, 0.6759561467745724, 295.10827094328283, 177.14682103313856)">
      <text fill-opacity="1" font-style="normal" font-family="Helvetica" font-weight="normal" stroke="none" fill="#000000" font-size="14" x="0" y="0" style="white-space: pre;">Ibn Faḍlān</text>
    </g>
    <g transform="matrix(0.6759561467745724, 0, 0, 0.6759561467745724, 514.5, 212.5)">
      <g fill-opacity="1" fill-rule="nonzero" stroke="none" fill="#cccccc">
        <path d="M -134.32872009277344 -51.46620178222656 C -134.32872009277344 -43.18193053476466 -141.04444884531154 -36.46620178222656 -149.32872009277344 -36.46620178222656 C -157.61299134023534 -36.46620178222656 -164.32872009277344 -43.18193053476466 -164.32872009277344 -51.46620178222656 C -164.32872009277344 -59.750473029688465 -157.61299134023534 -66.46620178222656 -149.32872009277344 -66.46620178222656 C -141.04444884531154 -66.46620178222656 -134.32872009277344 -59.750473029688465 -134.32872009277344 -51.46620178222656 z"/>
      </g>
    </g>
    <g transform="matrix(0.6759561467745724, 0, 0, 0.6759561467745724, 379.1331082742402, 181.28759908856256)">
      <text fill-opacity="1" font-style="normal" font-family="Helvetica" font-weight="normal" stroke="none" fill="#000000" font-size="14" x="0" y="0" style="white-space: pre;">Abū al-Barakāt</text>
    </g>
    <g transform="matrix(0.6759561467745724, 0, 0, 0.6759561467745724, 514.5, 212.5)">
      <g fill-opacity="1" fill-rule="nonzero" stroke="none" fill="#cccccc">
        <path d="M 22.789993286132812 -158.34788513183594 C 22.789993286132812 -150.06361388437404 16.07426453359471 -143.34788513183594 7.7899932861328125 -143.34788513183594 C -0.49427796132908774 -143.34788513183594 -7.2100067138671875 -150.06361388437404 -7.2100067138671875 -158.34788513183594 C -7.2100067138671875 -166.63215637929784 -0.49427796132908774 -173.34788513183594 7.7899932861328125 -173.34788513183594 C 16.07426453359471 -173.34788513183594 22.789993286132812 -166.63215637929784 22.789993286132812 -158.34788513183594 z"/>
      </g>
    </g>
    <g transform="matrix(0.6759561467745724, 0, 0, 0.6759561467745724, 506.79281476844636, 109.04026825078064)">
      <text fill-opacity="1" font-style="normal" font-family="Helvetica" font-weight="normal" stroke="none" fill="#000000" font-size="14" x="0" y="0" style="white-space: pre;">Galen</text>
    </g>
    <g transform="matrix(0.6759561467745724, 0, 0, 0.6759561467745724, 514.5, 212.5)">
      <g fill-opacity="1" fill-rule="nonzero" stroke="none" fill="#cccccc">
        <path d="M -143.2122039794922 -196.5651092529297 C -143.2122039794922 -188.28083800546779 -149.92793273203029 -181.5651092529297 -158.2122039794922 -181.5651092529297 C -166.4964752269541 -181.5651092529297 -173.2122039794922 -188.28083800546779 -173.2122039794922 -196.5651092529297 C -173.2122039794922 -204.8493805003916 -166.4964752269541 -211.5651092529297 -158.2122039794922 -211.5651092529297 C -149.92793273203029 -211.5651092529297 -143.2122039794922 -204.8493805003916 -143.2122039794922 -196.5651092529297 z"/>
      </g>
    </g>
    <g transform="matrix(0.6759561467745724, 0, 0, 0.6759561467745724, 372.0354449618401, 83.20710069346588)">
      <text fill-opacity="1" font-style="normal" font-family="Helvetica" font-weight="normal" stroke="none" fill="#000000" font-size="14" x="0" y="0" style="white-space: pre;">Ibn al-Naqqāsh</text>
    </g>
    <g transform="matrix(0.6759561467745724, 0, 0, 0.6759561467745724, 514.5, 212.5)">
      <g fill-opacity="1" fill-rule="nonzero" stroke="none" fill="#cccccc">
        <path d="M -259.6574401855469 -103.19874572753906 C -259.6574401855469 -94.91447448007716 -266.373168938085 -88.19874572753906 -274.6574401855469 -88.19874572753906 C -282.9417114330088 -88.19874572753906 -289.6574401855469 -94.91447448007716 -289.6574401855469 -103.19874572753906 C -289.6574401855469 -111.48301697500096 -282.9417114330088 -118.19874572753906 -274.6574401855469 -118.19874572753906 C -266.373168938085 -118.19874572753906 -259.6574401855469 -111.48301697500096 -259.6574401855469 -103.19874572753906 z"/>
      </g>
    </g>
    <g transform="matrix(0.6759561467745724, 0, 0, 0.6759561467745724, 269.6651066486304, 146.31866802044289)">
      <text fill-opacity="1" font-style="normal" font-family="Helvetica" font-weight="normal" stroke="none" fill="#000000" font-size="14" x="0" y="0" style="white-space: pre;">Muḥammad b. Malik Shāh</text>
    </g>
    <g transform="matrix(0.659996, 0, 0, -0.651429, 75.339722, 567.497559)">
      <g stroke-dasharray="8,4" stroke-width="2" stroke-linecap="butt" fill="none" stroke-opacity="0.3921568691730499" stroke="#999999" transform="matrix(1, 0, 0, 1, 515.094421, 308.136871)">
        <path d="M 3.436 -60.229 C -45.748 -59.52 -71.471 -60.043 -114.499 -59.704"/>
      </g>
    </g>
    <g transform="matrix(0.675956, 0, 0, 0.675956, 424.424377, 396.817169)">
      <text fill-opacity="1" font-style="normal" font-family="Helvetica" font-weight="normal" stroke="none" fill="#000000" font-size="14" x="0" y="0" style="white-space: pre;">relationship or interaction with</text>
    </g>
    <g transform="matrix(0.675956, 0, 0, 0.675956, 423.968933, 408.610657)">
      <text fill-opacity="1" font-style="normal" font-family="Helvetica" font-weight="normal" stroke="none" fill="#000000" font-size="14" x="0" y="0" style="white-space: pre;">transmission or mention by</text>
    </g>
  </g>
</svg>